<svg xmlns="http://www.w3.org/2000/svg" width="36" height="32" viewBox="0 0 36 32"><path fill="#644799" d="M7 4H1c-.55 0-1 .45-1 1v22c0 .55.45 1 1 1h6c.55 0 1-.45 1-1V5c0-.55-.45-1-1-1zm-1 6H2V8h4v2zM17 4h-6c-.55 0-1 .45-1 1v22c0 .55.45 1 1 1h6c.55 0 1-.45 1-1V5c0-.55-.45-1-1-1zm-1 6h-4V8h4v2z"/><path fill="#644799" d="M23.91 5.546l-5.36 2.7c-.49.247-.69.852-.442 1.343l9 17.86c.246.49.85.69 1.342.443l5.358-2.7c.49-.247.69-.852.443-1.343L25.253 5.99a1.003 1.003 0 0 0-1.343-.444z"/><path fill="#644799" d="M29 27a1 1 0 1 1-2 0 1 1 0 0 1 2 0z"/></svg>