<svg xmlns="http://www.w3.org/2000/svg" width="36" height="32" viewBox="0 0 36 32"><path fill="#644799" d="M24 24.082v-1.65c2.203-1.24 4-4.336 4-7.43 0-4.972 0-9-6-9s-6 4.028-6 9c0 3.095 1.797 6.19 4 7.43v1.65C13.216 24.637 8 27.97 8 32h28c0-4.03-5.216-7.364-12-7.918z"/><path fill="#644799" d="M10.225 24.854c1.728-1.13 3.877-1.99 6.243-2.513a11.33 11.33 0 0 1-1.265-1.843C14.253 18.77 13.75 16.87 13.75 15c0-2.69 0-5.228.956-7.305.928-2.016 2.598-3.265 4.976-3.734C19.152 1.57 17.746 0 14 0 8 0 8 4.03 8 9c0 3.096 1.797 6.19 4 7.432v1.65c-6.784.554-12 3.887-12 7.917h8.72c.453-.404.955-.788 1.505-1.147z"/></svg>