<svg xmlns="http://www.w3.org/2000/svg" xml:space="preserve" viewBox="160.4 104.03 1585.73 388.91">
  <path fill="#1f60f3" d="M977 435.2c-6.6-5.8-14.2-10.9-19.3-17.8-6-8-11-17.3-14.5-26.8-9.7-25.7-10.6-53-10.7-80a231 231 0 0 1 12.6-68.5 69 69 0 0 1 41-40.9 90 90 0 0 1 70.6 2.8c8.3 3.8 15.5 9.8 23.3 14.8l4.1 2.6c-.5-6-.8-10.6-1.4-15.3-1.4-12-3.5-24-4.3-36-.8-10.7-.4-21.3-.3-32 .2-17.3 9.4-28.3 26.3-32.4 19.7-4.8 36.1.9 49.9 15 8.7 9.1 14 20.4 16.8 32.6q5.8 25.5 10 51.1c2 12.1 2.7 24.4 3.5 36.7q2.4 35.6 3.8 71.2a461 461 0 0 1-4.4 73.1c-1.1 7.4-3.3 14.5-5.3 22.3-1.8 4-3 7.4-4.8 10.5-6 10.3-14.7 16.2-25.5 5.4-7.3-7.2-18.4-6-25.2 1.5q-2.5 2.8-5.3 5.3c-5.7 4.6-12.1 3.4-15.3-3.2-1.9-3.8-2.7-8.1-4-12.3l-2.3-8.6-2.7 3.3c-17.8 22.8-40.5 36.4-70.2 36.6q-8 0-16.7-.6l-2-.3-2-.4zm138-226.4c4.1 3.8 8.8 4.4 12.4 1.4 4.3-3.6 4.9-7.5 1.6-13.3-3.6-4.2-8.5-4.8-12.4-1.6q-6.7 5.4-1.5 13.5m-91.7 192.8q-2.3 13.8 9.3 17.4c2.4.3 4.9 1.2 7.2.9 6-.9 10.8-4.1 12.6-10 1.7-5.5 1.5-11.1-4.3-15.7-9-7.3-20.1-4.2-24.8 7.4m59.2-43.8 6.2-12.6q-.2-.5.6-1.7c1.4-9.2 3.2-18.3 4-27.6.4-3.5-1.1-7.2-1.7-11.6-.2-1-.3-2-.1-3.9l-6.8-19q-.5-.7-.5-1.6l-.1-.3q-.1.1-.7-.6c-4.4-5.4-9.3-10.2-16.5-11-15.4-1.4-23.7 3.3-31.3 17.4v.4s.2.2-.2 1q-.6 2.2-2 4.5-.4.1-.3 1.6c-.2 1.3-.3 2.6-1.1 4.3l-1.6 25q.1.7-.3 2.5c1.9 8.2 2.5 16.9 5.8 24.4 5.4 12 13.1 22.2 29.4 20 7.3-1 13-4.3 16.6-11zm78.6-106.6c-5.6-11.2-17-15.5-27.5-10.4a21 21 0 0 0-10 28.4c2 2.6 3.7 5.6 6.1 7.7 7.4 6.5 18.2 6.1 26.4-.5a21 21 0 0 0 5-25.2"/>
  <path fill="#2061f2" d="m1743.3 384-.5 3q-1.1 4.3-2.4 8.2a63 63 0 0 1-27.6 29.7 134 134 0 0 1-38.2 14 240 240 0 0 1-66 4.5c-15-.7-30-3-45-5.1a112 112 0 0 1-50.7-22 89 89 0 0 1-25.9-33c-11-25.5-11.6-52.4-9.6-79.3.7-10.1 4-20.1 6.9-29.9q3.5-11.3 8.9-22a118 118 0 0 1 35.6-42.8 149 149 0 0 1 86.6-29.3c12.4 0 25-.6 37.4.5 26.9 2.5 50.2 12.5 64.6 36.8a68 68 0 0 1 7.5 48.5c-1.5 7.9-4.4 15.5-7.2 23.6l-7.3 11.5-2.1 3-8.5 8.2q-.6.4-.8.9h-.3l-2.2 2-.8.4c-1.2.8-2 1.7-3.2 2.5l-.8.4q-1.2.7-2.2 1.6l-.8.4q-1.3.7-2.2 1.6l-.8.3a155 155 0 0 1-38 12.6 226 226 0 0 1-69.8 0q-4.5-.4-9.3-.6A26 26 0 0 0 1588 355l.5.2.4.1c1.4.3 2.3.4 3.5.8q14.5 1.4 29.2 2.6 18.3.6 35-5.1c14.4-4.9 28.9-9.1 43.3-13.7l13 .4 11 3q5 3 9.1 5.7l2.8 3.4 4.3 5.7.2 2 2.8 6v5zM1514 369l.3.5q.6.4 2 1.9l2.1 1.3c7.1 4.4 15 4 21.3-1.2 5.5-4.6 10.7-12.6 7.2-22.2-2.4-8-7.7-13.2-16.1-14.3a18 18 0 0 0-19.1 10c-4 7-4.6 14.4.6 21.7l.4.8zm183.7 24.7a16 16 0 0 0-1.4-21.6c-4.9-5.2-13.1-5.7-20-1.2q-10.2 8.1-5.8 18.7c2.4 5.4 6.3 9.5 12.4 10.2 5.6.7 10.9-.4 14.8-6.1m-99.8-99.9c4.4-.6 9-.7 13.2-1.9a48 48 0 0 0 29.3-19.3 20 20 0 0 0-13.4-31 56 56 0 0 0-29.8 3.1 43 43 0 0 0-25.8 22c-2.7 6-1.5 15.3 2.6 19 6 7.6 14.3 8.3 23.9 8.1"/>
  <path fill="#1f60f4" d="m395.2 373.4-.6-3.4q-1.2-2-2.1-2.8-3.4-16.5-6.6-33.2c-3.2-17.6-.7-35.1 2.2-52.6 2-13 6.7-25.4 12.6-37a111 111 0 0 1 41-44.5 125 125 0 0 1 46.8-17.3q20.7-3.2 41.3-1.4c37.3 3.6 69.3 18 92.8 48.3a119 119 0 0 1 19.8 40.4c6 21 5.8 42 4.4 63.3-.5 8.2-3.3 16.2-5.3 24.7l-5.6 14-.4.1q-1.6 3.5-2.7 6.9h-.4l-6.3 10.3q-.1.4-.5.7-.9 1.1-1.6 2.3 0 .3-.5.6l-1.5 2.5-1.1 1q-.7.3-.6 1c-.2 0-.4.5-.7.6l-2.8 3.3-7 7q-5.6 4.5-10.7 8.9h-.4q-2.4 1.2-4.2 2.3a127 127 0 0 1-59 20.3 267 267 0 0 1-46 0c-9.6-.7-19-4.1-28.4-6.7-5.2-1.4-10.2-3.7-15.5-5.7l-1.5-.7q-2.1-1.4-4.3-2.5-.4-.2-.7-.6l-11.3-7.4q-.4-.2-.6-.6-2.6-2.4-5.4-4.5c0-.1-.4-.2-.4-.5q-.8-.9-1.7-1.4c-.1-.1-.6-.2-.6-.4l-.4-.8q-.3-.8-1-.8l-1-1.2q-.3-.5-1-1l-.8-1q-.6-.7-1-.9v-.3l-2.8-3.1q-.3-.3-.4-.8-1.2-1.7-2.7-3.3-.8-.8-1.3-1.7-.7-1.2-1.6-1.9v-.4q-3.6-6.4-7.3-12.3l-1.1-4.2q-.8-1.3-1.5-1.6M593.3 293c.7-.3 1.3-.6 2.7-.9 4-1.3 6-4 5.6-9-.4-3.8-2-6.6-6.2-7.1s-7.6.6-9.8 4.4c-1.8 3.2-1.8 6.3 1.4 9.6l2.6 2 .9.4q1.3 0 2.8.6M456 351v-.8c-5.3-11.8-16.4-15.7-27.3-9.6a19 19 0 0 0-9.2 20c1.3 7.5 7 14 13.7 15.6q.1-.1.5.4c.8 0 1.5.1 3 .5 13.6.1 23.3-11.1 20.6-23.7zm139.8-119.8-2.8-2c-7-4-15.4-2.6-21.1 3.3-6 6-7.2 13.2-3.4 20.4q5.9 11.2 17.8 9.7 11.1-1.5 14.9-12 3.7-11.2-5.4-19.4M499 346.6q.4.1 1.4 1a32 32 0 0 0 41.9-6.5c16-19.2 14.5-49.5.5-68.2-10-13.3-26.8-14.8-40-8.4-17 8.2-23 29.8-20.1 49.4.8 4.7 1.2 9.6 2.7 14 2.5 7.4 6.2 14.3 13.5 18.2z"/>
  <path fill="#1f61f4" d="M663.2 399.7c-5-27.3-2.1-54.6-.3-82 1.1-17 1.4-34 3.3-50.8a375 375 0 0 1 8.4-49.4 62 62 0 0 1 15.4-29c7.7-7.8 16.3-13.9 27.7-13.4 7.6.3 15.3.6 22.6 2.2 10.8 2.3 15.8 10.7 18.5 20.6 1.5 5.6 2.2 11.5 3.4 17.8 4.4-5.6 8.2-10.8 12.3-15.6a77 77 0 0 1 81.4-24.6 68 68 0 0 1 36 24.3 96 96 0 0 1 18 33.9c4 14.4 7.4 29.4 8.3 44.3 1.3 20.9.1 42-.4 62.9-.1 7.8-1.4 15.5-2.5 23.9q-1 3.8-1.5 6.9-.3 3.2-1 7.4l-1.9 8.7-1 4.2q-5.5 11.9-11.1 23.2l-2 3q-.8.3-.9 1l-3.2 3-2.3 1.7-2.7 1.5c-7 2.6-12.9.4-18.9-2.3q-.3 0-.6-.6l-2.2-1.4-.2-.3-4-2.8-.6-.5c-9.7-6-17.4-4.6-24.7 4.4l-.8.4h-11l-1.8-1.6q-.4-.5-.9-.7v-.3l-1-1q-.9-1-1.3-2l-1.5-2.4q-.5-.8-.7-1.6-1.2-4-2.6-7.7l-.3-4.3-.8-26.6.4-14.7q.5-10.7 1.5-22.3l1.8-30.4-.2-22q-1.1-5.4-2.6-11l-.5-2a74 74 0 0 0-5.1-6.8v-.3c-7.5-7.2-19.2-5.2-23.5.4l-2.8 2.4q-4.4 6.8-8.6 13.8c-.2.1-.3.6-.6.7q-.7 1.1-1 2.5l-.7 3a96 96 0 0 0-4.7 41.2q-1.3 25.5-3 50.8c-.5 7-1.8 14.1-2.9 21.8l-2.3 5c-3.9 11-15.1 18.2-25.4 15-4.9-1.6-8.8-6-13.4-9-3.5-2.3-7-5-11-6-6.4-1.6-10.8 2.6-14.6 7.3-7.7 9.4-18.5 8.8-25-1.5-2.6-3.8-4.3-8.2-6.4-12.3m228.7-103.4c-3.5-5.1-8.2-9-14.3-10-9.8-1.8-18.5.3-24.7 8.9s-8.8 17.7-4 28.7q.1 1.2.5 2.4a24 24 0 0 0 23.6 15.2c10.2 0 17.3-5.7 21.4-14.5a29 29 0 0 0-2.5-30.7"/>
  <path fill="#1f60f4" d="m160.7 356.5.3-74.5.3-1-.5-.6q.2-2.9.8-6.5.9-9.7 1.3-18.6.2-5.2.9-11.2.9-4.8 1.2-8.8c1.2-6.3 2-12.8 3.5-19 3.4-14.3 6.8-28.6 15.2-41a67 67 0 0 1 26-21.7 167 167 0 0 1 42.4-13.6 282 282 0 0 1 70.4-4.6c17.4.7 33.7 5.3 45.7 19.4a47 47 0 0 1 10.5 32.8 48 48 0 0 1-31.7 43.7c-28 10.2-56.8 11-86 8-4-.4-4.9.7-5 4.3-.4 9.1-.5 9 8.5 9.7 14.4 1.3 29 2 43.1 4.5 14.6 2.6 29.5 5 42.6 12.6a41 41 0 0 1 18.4 20.7q.9 1.8 1.8 2.8l.5 6.3q.3 8.3 1 15.6l-.8 2.3q-.3 1.8 0 2.8l-.8 2.1-1.4 1.4c-5.2 14.7-17.4 20-31 22.7-16.2 3.1-32.4.4-48.3-3.1q-7-1.6-13.8-4-5-1.5-9.7-3.4l-1 1.4 2 4.3.1 2q-.1 3 .4 5.4 4.7 18 1.8 36c-1.4 8.9-4 17.6-6.3 26.5q0 .4-.6.7c-3 3-5.6 6.4-8.7 9.1-8.3 7.4-13.3 8-23.3 2.7-6.8-3.5-13.6-2.8-19 2.3q-.7.6-1.8 1.1l-2.2 1.7-.8.3-1.7 1.1-1.3.4q-7.2 0-14.1-.2-.8-.3-1.5-.8l-3-2.2q-1.2-.8-2-1.8l-4-4-.5-.8c-3-6.5-6.3-12.6-9-19-2.4-5.3-4-11-6-16.6l-.3-6.5q-1.2-12-2.6-23.2"/>
  <path fill="#2061f3" d="M1218.6 385.6c-1.6-6.8-3.5-13.5-4.8-20.3q-3.6-17-6.2-34.2a369 369 0 0 1-3.3-86.6c.8-8.9 1.6-18 4.4-26.4 4.8-13.8 13-25.3 28-30a58 58 0 0 1 40 .5 40 40 0 0 1 19.4 19.1c7.9 15.4 7.8 32.3 8.7 49l3.1 53.4c1.7 10.2 2.7 20 5.5 29.3 2.7 9 10.3 13.4 19.7 13 8.5-.3 14-5.4 17.4-13.3a62 62 0 0 0 6-32V297q-.5-2.5-1-4c-1-15.6-1.5-31.3-2.8-46.8-1.2-13.8-.7-27.5 2.9-40.7a37 37 0 0 1 37.4-28.2c9.9.1 19.8.1 29 4.9a45 45 0 0 1 22.5 24 245 245 0 0 1 11 38.1 309 309 0 0 1 5 40c1.4 21.8 2.9 43.6 2.8 65.4-.1 15.5-2.9 31-4.5 47.3-2.5 6.6-4.1 12.8-7.3 18.1-5 8.3-12.8 9-20.2 2.6q-3.3-3-7-5.6a16 16 0 0 0-21 2.8c-1.7 2-3 4-4.7 5.9-4.5 5.3-12 5.4-16.6.3-6-6.5-7.4-14.6-8.3-23-.2-2-.6-4-1.1-7.2-1.5 2.2-2.2 3-2.7 4a89 89 0 0 1-30.7 32.1c-9.5 6.4-18.5 6.8-28-.4-8.3-6.3-18-10-28.4-8.2a92 92 0 0 0-22 7.5c-5.7 2.6-11 3.2-15.6-1.3-5-4.8-10.3-9.6-14-15.3-5-7.4-8.5-15.7-12.6-23.6m59.5-6.4q-1.8-6.2-8.3-6.2c-3.3 0-6.2.9-7.6 5-2.2 4.3-1.1 8.3 2.6 10.3 2.7 1.4 6.8 1.7 9.7.7 3.4-1.3 5.1-5 3.6-9.8m118.2-138.6c-.3 9.1 9.7 16 16.8 15 8.7-1.2 16.1-9.5 14-18.5-.8-2-1.2-4.2-2.3-6a16 16 0 0 0-18.6-6.8 15.6 15.6 0 0 0-10 16.3m-117 84.5q-.2.1-.2-.9c-2.2-9.8-7.6-17-17.3-20a24.5 24.5 0 0 0-28.8 10.2 30.5 30.5 0 0 0 3.2 36.3q14.8 14.2 31.5 4.6a28.5 28.5 0 0 0 11.8-29.8v-.3q-.2.1-.3-.1"/>
  <path fill="#f9ce68" d="M1218.5 386c4.2 7.5 7.8 15.8 12.7 23.2 3.7 5.7 9 10.5 14 15.3 4.7 4.5 9.9 4 15.7 1.3 7-3.1 14.4-6.3 21.9-7.5 10.4-1.7 20.1 2 28.5 8.2 9.4 7.2 18.4 6.8 28 .4a89 89 0 0 0 30.6-32.1c.5-1 1.2-1.8 2.7-4 .5 3.3.9 5.3 1 7.2 1 8.4 2.5 16.5 8.4 23 4.7 5.1 12 5 16.6-.3l4.6-5.9a16 16 0 0 1 21.2-2.8q3.6 2.6 7 5.6c7.3 6.4 15.2 5.7 20-2.6 3.3-5.3 5-11.5 7.4-17.7q.1 7.4-.6 15-.4 4.4-2.3 9.4c-2 1.4-3.6 2.2-4.6 3.5-2.9 3.8-5.3 8-8.3 11.6a34 34 0 0 1-24.5 12.2c-12.3.9-22.3-4.5-31.5-11.6-7.3-5.5-14.6-10.5-24.4-9.4-5.7.6-10.5 2.8-15.1 7.6l3.3.4q-5.8 9-12 17.9a31 31 0 0 1-6.7 6.5c-3.3-4.5-7.6-2-11-2.2-4.8-.3-9-1.1-12.2-4.6-9-9.5-22.7-8-28.4 3.6-5.4 11-14 12-24.6 11.5-5.6-.2-11.2-1.6-16.8-1.5-5 0-8.7-1.4-11.7-5.3q-1-1.2-2.6-2c2.4-5.8 7.8-10.7 6.8-17.7q-1.8-12.8-4.7-25.3c-2.5-10.3-5.6-20.4-8.4-31m40.3 68.7c-6.2-2.1-12.3-4.5-18.4-.3-1 .7-1.9 2.6-1.6 3.6s2.2 2 3.4 2q6.7.3 13.4 0c2.7-.2 5-1.2 3.2-5.3"/>
  <path fill="#f7ce6b" d="m619.9 397.8.5-.6q.8-.5.7-.9.2-.4 1.3-1.1 1-1.5 1.4-2.5 0-.2.6-.5 1-1.4 1.5-2.4-.1-.1.6-.6 3.4-5.4 6.3-10.4h.3l2.9-3.8.2.4.3.8a143 143 0 0 1-19.8 40.4q-6.3 9.7-13.2 19.3c-4.8-.9-3.8 2.9-4.3 4.7-3.5 11.6-14.3 20-27 13.2-2.7-1.5-3.2 0-3.2 2.2-14-11.9-26.8-8.2-34 9.7-2 1.2-3.8 2-4.5 3.5a26 26 0 0 1-12 12.6c-5.4 2.8-14.4 3.1-17.1.3l5.6-3.5c-1-1.1-2-3.1-3.1-3.2-5.3-.2-6.7-4-8.2-8q-.9-2-2.7-4.6c-2.8 7.5-.7 13 3 18-5.6-2.8-7.2-7.9-8-13a22.5 22.5 0 0 0-18.8-19.6c-5.3-1-11-.1-16.6.5-7.7 1-15 .5-19.7-6.4a214 214 0 0 1-14.4-24.2c-1-2.2-2.7-6.4.6-9.2q.2-.1.7.5l1.6 1.4q.1-.1.5.5a60 60 0 0 0 6 5.1q5.7 4 11.3 7.4l.6.6q2.4 1.6 4.4 2.5.5-.1 1.5.7c5 2.8 9.6 5.8 14.6 7.4q33.4 10.8 68.6 7.2c18.4-1.8 36.1-5.1 52.6-13.6 6.1-3.2 11.7-7.6 17.6-11.4l.4-.1q5.6-4.5 10.6-9 3-3.3 7-7c1.4-1.2 2-2.2 2.8-3.3"/>
  <path fill="#f6cb6a" d="M1487 383.7a91 91 0 0 0 25.9 32.7 113 113 0 0 0 50.7 21.9c15 2 30 4.4 45 5.1 22.1 1 44.2.4 66-4.5a134 134 0 0 0 38.2-14c12-7 21.8-16.3 27.7-29.4q.7.6.9 1.4-2.7 6.7-6.2 13.8c-2.3 1.5-4.5 2.5-5.4 4.2-2.7 4.6-4.5 9.8-7.1 14.4-3.9 6.7-8.5 13.6-16.7 14.4-7.2.8-14.6 0-21.8-1.3-9-1.6-17.5-3-24.4 5.4-4.6 5.5-10.8 9.9-14.6 15.9-5.8 9.2-25.8 13.3-33.6 3.5-2.5-3.1-5.6-5.7-8.4-8.5a33 33 0 0 0-31.6-9c-6 1-11.8 3-17.9 3.8-10.4 1.6-21 1.2-29.3-6a82 82 0 0 1-22.9-31c-1-2.6-3.8-4.4-5.8-6.6zm132 79.3-8.3-7.4c-.2 6.8 4.6 13 9.9 13.2 1.8.1 3.6-1.6 5.5-2.5l-4.5-2.4z"/>
  <path fill="#fad06b" d="M188.2 430.9q.5 0 1.5.8c5.2 3 10 3.8 14.4 0q.2-.2 1.2-.5 1.3-.6 1.7-1l.8-.4q1.4-.9 2.2-1.7.5-.5 2-1.1a21 21 0 0 1 20.7.7c10 5.8 27-3 30.2-15q-.1-.1.5-.5 1.5-1.4 2.7-2 2.2.9 3.9 2.2l.2 4-.3 1.5a1520 1520 0 0 0-.6 40.7l-.4.2-1 2.7a20 20 0 0 1-21.3 16.5c-2.6-.2-5.3.2-8 0q-4.2-.3-3.5 3.7c-6.8-4.3-6.6-11.6-8-18.3l-1.8-9.2c.8-6.6-3.2-11.4-9-12.3-8.2-1.3-11.9 4.8-17 9.2a43 43 0 0 1-12.7 7.6c-4.2 1.6-10.6-2.7-11.4-6.6h1.2l7 .9q-2.4-5-5.1-9.7c-.4-.6-2.3-.3-3.7-.3q-.5 1-.6 2.3a4 4 0 0 1-.2 1.9l-1.2 2.8h-3.7c-1-5.1-2.3-10.3-2.7-15.5a798 798 0 0 1-2.4-40c2 3.8 3.2 8.1 5.3 12 2.8 5.4 6.3 10.4 9.5 15.6q.2 0 .4.8 2.1 2.4 4.1 4 .8.6 2 1.9 1.7 1.4 3.1 2m49.9 42.6c2.8.8 5.6 2 8.5 2.3.8.1 2-2.1 3-3.3l-3.1-2.4c-2-1.5-4.4-2.7-5.7-4.6-1.5-2-2-4.8-3-7.3l-1.3.2c-.6 4.8-1.5 9.7 1.6 15"/>
  <path fill="#f7cd6b" d="M1007 445.8q8.3.4 16.4.4c29.7-.2 52.4-13.8 70.2-36.6l2.7-3.3 2.4 8.6c1.2 4.2 2 8.5 3.9 12.3 3.2 6.6 9.6 7.8 15.3 3.2q2.9-2.5 5.3-5.3c6.8-7.5 18-8.7 25.2-1.5 10.8 10.8 19.6 4.9 25.5-5.4 1.8-3.1 3-6.6 4.8-10q-1 8.9-2.7 18.1c-.9 4.7-2.3 9.4-3 14-1 7.5 0 14.3 6.7 19.4-.6.8-1.4 1.3-1.3 1.7 1.2 6.7 1.1 7-5.6 7.6q-11.9.7-23.8 1c-1.3 0-2.7-1.2-3.6-1.9q8.4-2.5 16-5.1c1.3-.4 2.3-1.8 3.4-2.8-1.5-.6-3.1-2-4.4-1.6-5.2 1.2-10.2 3-15.3 4.1 1.7-4.3.2-7.5-3.2-9a26 26 0 0 0-10.7-2.1c-4.4 0-8.8 1.8-13.1 1.8-6.2-.1-10.2-4.5-14-8.8-7.7-9-16.9-11.8-28.4-7.6-7 3.7-13.5 7.9-20.4 11-4.4 1.9-10.2 4.3-14.3 3a56 56 0 0 0-32-1.3z"/>
  <path fill="#f8ce6d" d="M663 400.1c2.3 3.7 4 8 6.5 12 6.6 10.2 17.4 10.8 25 1.4 4-4.7 8.3-9 14.7-7.3 4 1 7.5 3.7 11 6 4.6 3 8.5 7.4 13.4 9 10.3 3.2 21.5-4 25.4-15q.8-2 2.4-4.6.1 10-1 21-2.2 3.6-3.3 6.6c-5 14.7-12.1 17.4-25 9.5a24 24 0 0 0-24.5.9q-6 4.3-12.5 7.8c-6.7 3.2-13.2 1-19.8-1a9 9 0 0 1-6.3-5.5c-.7-1.6-2.4-2.7-3.7-4-.5-1.4-1.4-2.9-1.5-4.4q-.6-15.9-.8-32.4m18.2 44.8c1.2-1.1 2.7-2.1 3.4-3.6.2-.4-1.6-2.7-2.7-2.9-5-1-5.4-5.2-7-8.7q-.6-1.4-1.4-4.4c-4 4.2-2.7 8.3-2 11.8.9 4.5 3.5 8 9.7 7.8"/>
  <path fill="#fabc51" d="M1495.7 410.3c2 1.8 4.8 3.6 5.8 6.2a82 82 0 0 0 22.9 31c8.3 7.2 18.9 7.6 29.3 6 6-.9 12-2.7 18-3.8a33 33 0 0 1 31.5 9c2.8 2.8 6 5.4 8.4 8.5 7.8 9.8 27.8 5.7 33.6-3.5 3.8-6 10-10.4 14.6-16 6.9-8.3 15.3-6.9 24.4-5.3q10.9 2.2 21.8 1.3c8.2-.8 12.8-7.7 16.7-14.4 2.6-4.6 4.4-9.8 7-14.4 1-1.7 3.2-2.7 5.2-4-5 11-9.5 22.9-16.2 33.1-6 9.2-15.9 10.3-26.8 7.4-17.5-4.6-30-3.4-42.7 16.8-8.2 12.8-19.3 17.1-33.3 11.6-4.8-2-8.7-6.4-12.7-10s-7.5-8-11.7-11.3c-6.9-5.3-14.5-4.6-22.3-1.6-12.6 4.8-25.6 8.3-38.6 2.6a37 37 0 0 1-16.2-12.6c-7.2-11.4-12.6-24-18.7-36.6"/>
  <path fill="#fccb62" d="M270 412q-1.7-.7-3.8-2.2 8.7-24 5.6-48.3c-.7-6-3-11.7-4.5-17.6q-.1-.4.1-1.8c2.8-4.1 5.6-1.3 7.8-.4 14.6 5.9 30 8 45.5 9.1q20.5 1.5 37.8-10.1c1.5-1 3-2.6 4 .6l-3.1 8.5q-.5 1.4-.4 2 .1 1.2-.5 3v3q.2 4.3-.7 9l-6.2 6.1c-3.7 4-8.2 3.7-12.8 2.2-4.4-1.5-4.5-5-5-8.8-.2-2.6-1.1-5.6-2.8-7.6a16 16 0 0 0-24.5-.4c-4.4 5-7 11.7-10.9 17.7-7 3.7-13.4 7.5-20 11.2q-5.3 3-.6 7.2v2.8q-.5 2.4-1.7 5.5-.5 1.4-.6 2.2.1.7-.4 1.8z"/>
  <path fill="#f9cd6b" d="m819.6 417 1.4 2q.6.8 1 1v.2q.5.9 1 .8.7.4 1.8 1.6 6.3 5.2 11.3-.4 0-.2.8-.3 2.3-1 3.8-2c5.6-4.5 11.5-6.5 18.3-2.5q1 .4 2.4.4.1-.1.5.6 2 1.7 4 2.7l.1.3q1.1.9 2.3 1.5.1-.1.6.6c5 5.3 14.3 6 19.2 1.9.7-.5 1.3-1 2.7-1.4q1.6-1 2.2-1.9l3.1-3q1-.6 1-1 .6-1.3 2-2.9 3.9-4.6 6.8-9l1 2.7-1 6q-.7 2-.6 3.4l-.4 1.4q-.6.6-1 .1-3 4.5-5.1 9.7c-3.7 8.8-10.5 13.3-19.7 8.7a47 47 0 0 0-10.2-3.7c-5.1-1.2-9.1.9-9.9 4.7-5 1.7-7.3 5.6-9 10.3-3.2-5-4.3-.4-5.2 1-6.1 10.2-14.7 12.4-24.6 6.4q-1.7-.7-3.8-.8-.7-.6-1.1-2-.1-1.4-.6-2.2 0-18.8.5-38.5 1.4-.5 2.2-.3.4.3.7 1.5.8 1.6 1.5 2.4m2.3 27c-.3 2.7-1.5 5.9-.6 8 1.1 2.5 4 4.3 6.5 5.8.7.4 2.6-1.2 4-2l-2.6-3.1-4.5-5.8q-1-1.8-2.8-3"/>
  <path fill="#f6c666" d="M783.1 267.4q.9-1.1 2.8-2.4c5.4-1 10.1-2.4 14.9-2.7 2.7-.1 5.5 1.7 8.3 2.6v.4l5 6.8q.4.4.4 1.9 1.2 6 2.7 11 .3 10.5.2 22c-.9 4-1.4 7.3-2 10.9q-2.6-1-4.6-1.3-2.3-.1-4.7.4c-4.9-2-9.5-5-14.5-5.8-9.5-1.6-15.7 4.5-21.8 11.5a8 8 0 0 1-1.2-4.7l3.6-31q0-1 .6-2.7 1-1.6 1.1-2.5 0-.2.6-.7 4.8-7 8.6-13.7m11.5 29.2c2-1.9 4.3-3.6 6-5.8 2.8-3.9 1.5-8.1-1.5-10.8a16 16 0 0 0-9.7-3.4c-4.5 0-7.4 3.3-8.3 7.9-1.4 7.1 4.4 12.7 13.5 12.1"/>
  <path fill="#fabc51" d="M501 482.2c3 2.7 12.1 2.4 17.5-.4a26 26 0 0 0 12-12.6c.7-1.4 2.6-2.3 4.2-3.3-2 22-16.4 29.8-34.4 26.2-9-1.8-14.3-8-16.1-17-1.6-8-3-16.8-11.8-20.6a32 32 0 0 0-12.4-1.7c-2.8 0-5.7 1.5-8.6 2.4-10.7 3.2-22.5-1.2-25.6-11.8-4-13.3-11.8-24.5-17.6-37.5a10 10 0 0 1 3.2-3.8l2.5 1 .1.2q.5.6.9.8l1 1q.4 1.1.8 1 .4.3 1 1.2.6 1 1 .8l.4.6c-3.3 3-1.6 7.2-.6 9.4q6.4 12.5 14.4 24.2c4.7 7 12 7.3 19.7 6.4 5.5-.6 11.3-1.4 16.6-.5a22.5 22.5 0 0 1 18.9 19.5c.7 5.2 2.3 10.3 8 13.1q1 0 1 .5.9.5 2.3.6 1 0 1.6.3"/>
  <path fill="#fbbe51" d="m1351.1 435.8-3.6-.2c4.6-4.8 9.4-7 15.1-7.6 9.8-1 17.1 4 24.4 9.4 9.2 7.1 19.2 12.5 31.5 11.6q14.9-.9 24.5-12.2c3-3.6 5.4-7.8 8.3-11.6q1.6-1.8 4.3-3.2c-2 15.2-10.5 26-24.3 32.5-17.7 8.4-33.4 3.6-47.7-8.5-4-3.3-7.7-7-12.2-9.3-4-2-9-2.6-14.1-4q-1.7.4-2.4 1z"/>
  <path fill="#f2f4f8" d="M1699.7 339.6c-14.2 4.8-28.7 9-43 13.9a91 91 0 0 1-35.2 4.7c.3-12.3 11.3-20.4 22.2-20.2l19.7.8 6.8 1.5 2.2.5q1.5.1 2.9.5 2 .3 4 .2 7.7-2.2 14.7-4.5 2.6 1 5.7 2.6"/>
  <path fill="#fabc51" d="M665.3 437.3c1.3 1 3 2 3.7 3.6a9 9 0 0 0 6.3 5.5c6.6 2 13.1 4.2 19.8 1q6.6-3.4 12.5-7.8a24 24 0 0 1 24.5-1c12.9 8 20 5.3 25-9.4a28 28 0 0 1 3.2-6.1q.6 3.8 0 8.5-1.4 3.3-2 5.9c-1.7 12.7-12.8 18.2-24.9 11.3-10.3-5.9-19.2-4.8-28.4 2.4-11.6 9-24.7 8.1-34.8-2.5-2.6-2.7-3.4-7.3-5-11.4"/>
  <path fill="#fbbe4e" d="M1224.5 460.2q1.9.4 3 1.7c2.9 3.9 6.7 5.3 11.6 5.3 5.6 0 11.2 1.3 16.8 1.5 10.6.5 19.2-.5 24.6-11.5 5.7-11.6 19.3-13 28.4-3.6 3.3 3.5 7.4 4.3 12.1 4.6 3.5.1 7.8-2.3 10.7 2.3q-.7 1-2.5 1.6-2.1.7-3.3 1.5-3.4-.2-7.5-.8-1.6-.7-2.4-.7l-8.5-5.1c-9.8-6.7-19.7-4-23.6 7-3.2 9.2-9.8 12.7-18.3 12.6q-16.4-.2-32.6-2.5c-8.1-1-10.3-5.2-8.5-13.9"/>
  <path fill="#fac159" d="M1009 450a53 53 0 0 1 32 1c4 1.3 9.9-1.1 14.3-3 7-3.1 13.4-7.3 20.4-10.6q.4 1.5 0 2.7l-.7 1.5c-4 2.7-8.4 5.1-12.1 8.3-9.5 8.1-19.9 10.5-31.6 5.9a22 22 0 0 0-14-1.2c-5.9 1.4-10 4.4-12.3 9.9l-1.8 4.6c-2 5-5 8.8-10.9 8.8q-8.4 0-11-8.7 1-1.6 2-2c1 1.2 1.8 2 2.7 3.3q6.9 3.2 9.4-4.2c2.4-7.2 5-14.2 13.6-16.3"/>
  <path fill="#fabb50" d="M1076 440v-2.6c11.2-4.6 20.4-1.7 28.1 7.2 3.8 4.3 7.8 8.7 14 8.8 4.3 0 8.7-1.7 13-1.8q5.7 0 10.8 2c3.4 1.6 4.9 4.8 3 9.4q-.4 1.4-1.2 2-1.2 0-1.7-.2v-1.2c-.7-3.6-1.6-6.6-6-5.8l-3.8-.2q-1.6.1-2.3.7c-2 1-3.9 1.9-6.6 2.8l-12.7 2.2c-3.6-2.8-7.6-5.1-10.4-8.5-4.2-5-7.5-10.7-14.2-12.5-2.6-.8-5.4-.9-8.7-1.6z"/>
  <path fill="#f8c567" d="M1675 341q-1 .1-2.7-.5-1.4-.5-2.3-.5-2.9-.4-6.7-1.5l-3.9-3.6c3.8-1.5 7-2.4 9.9-3.9q8.4-4.2 16.7-8.8 0-.2.8-.3a8 8 0 0 0 2.2-1.6q0-.2.8-.4 1.5-.7 2.2-1.6l.8-.4q2.1-1.2 3.2-2.5 0-.2.9-.4a8 8 0 0 0 2.1-2h.2q.7-.5.8-.9 4-4 8.6-8 1.7.5 2.4.9l-16.9 31.7a108 108 0 0 1-14.8 4.5q-2.5-.3-4.3-.2"/>
  <path fill="#f2c771" d="M1350.2 339.3c-3.2 7.7-8.6 12.8-17.1 13.1-9.4.4-17-4-19.7-13-2.8-9.3-3.8-19-5.2-28.9a29 29 0 0 0 14.4 15.9c.6 3 .4 5.6 1.2 7.9 3.2 8.7 13.9 11.3 23 5.8q1.5-.5 3.4-.8"/>
  <path fill="#f8d376" d="M1009 449.7c-8.5 2.4-11.2 9.4-13.6 16.6q-2.6 7.5-9 4c1-1.2 2.5-2.1 2.4-2.7-.9-4.2-2-8.2-3.5-13.4-3.6 4.7-1.8 8.9-2.2 12.7l-1.8 2c-.6-2.6-1.6-5.5-1-8q2.4-13-3.3-25.3 12.6 4.2 25.8 9.5 1.4.5 2 .3l2 .2q1.3 2 2.2 4"/>
  <path fill="#f8e7a7" d="M1350.5 339.1c-1.5.5-2.8.5-3.7 1-9.1 5.5-19.8 3-23-5.8-.8-2.3-.6-5-.8-7.8 4.7 0 9.6 1 14.3.5 8.5-1 15-8.2 16.8-16.5q.5-1.7 2-3.3 1.8 16.5-5.6 32"/>
  <path fill="#fabc51" d="M175 452.1c1 4 7.4 8.2 11.6 6.6 4.5-1.7 9-4.4 12.7-7.6 5.1-4.4 8.8-10.5 17-9.2 5.8 1 9.8 5.7 8.8 12-3.9-6.2-11.8-6-16.4-1.8-2.7 2.4-4.9 5.4-7.5 8-5 5.1-11 7.8-18.4 5.8q-11.8-2.9-14-15.5 1.7-.6 3.8 0z"/>
  <path fill="#fbbd59" d="M296 376c3.4-6 6-12.6 10.5-17.7a16 16 0 0 1 24.5.4c1.7 2 2.6 5 2.9 7.6.4 3.8.5 7.3 4.9 8.8 4.6 1.5 9 1.8 12.8-2.2q2.6-3 5.9-6c.5 6.6-5.1 14-11 15-7.5 1.3-13-2.2-15.5-9.9q-.6-1.6-.9-3.3-1.4-8-8.8-10.6c-5.7-1.6-10.3 1-14.2 5l-2.5 2.7q-1 1.4-1.3 2.6-.2 1.3-1 3.3-1.8 4.7-3 8.8a18 18 0 0 1-3.9 3.3q0-4.1.6-7.8"/>
  <path fill="#fabc51" d="M859.4 439.2c.4-3.8 4.4-5.9 9.5-4.7q5.3 1.2 10.2 3.7c9.2 4.6 16 0 19.7-8.7a50 50 0 0 1 5-9.3l.7 2c-2 6.4-3.3 13-5.9 18.9-2.8 6.4-11.4 8.8-18.7 6-3.4-1.2-6.5-3.2-9.9-4.5q-5-2-10.6-3.4"/>
  <path fill="#c7b296" d="M362.7 341c-1.2-2.9-2.7-1.4-4.2-.3a59 59 0 0 1-37.8 10.1 147 147 0 0 1-45.5-9.1c-2.2-.9-5-3.7-7.8 0q-1.4-1.6-2.4-3.7l1-1.4 9.8 3.4q6.8 2.4 13.8 4c16 3.5 32.1 6.2 48.4 3 13.5-2.6 25.7-8 30.9-22.6q.2-.5 1.4-1-3.3 8.7-7.6 17.7"/>
  <path fill="#f8ba53" d="M1142 464v1.1a9 9 0 0 0 2.3 2.9l.6.2c1.4.6 2.8 1.7 4 1.7q12-.1 24-1c6.6-.4 6.7-.8 5.5-7.5q.2-.7 1.5-1.4c2 1.6 3.6 3.2 5.3 5.7l.1 3.8c-3.3 5.6-9.3 5-15.3 6q-16.3-1.4-31.4-2.3-1.2-2-1.9-4.9l1.3-2.2 1.2-1z"/>
  <path fill="#fabc51" d="M816.5 456.5q2-.4 3.7.4c10 6 18.5 3.8 24.6-6.4 1-1.4 2-6 4.8-.8q-1.2 19.4-18.8 19.2c-7.3-.1-12.7-4.6-14.3-12.4M235.3 482q-1-4.4 3.4-4c2.6.2 5.3-.2 8 0 9.3.9 19.6-5.4 21.3-16.5a9 9 0 0 1 1-2.6q1 3.8 1.1 8.8-1.2 3.2-1.8 5.7c-7 11.6-16.5 16-26.8 12.3q-3-1.4-6.2-3.7m333.9-25.7c-.2-2.6.3-4 3-2.5 12.7 6.8 23.5-1.6 27-13.2.5-1.8-.5-5.6 4-4.5a4 4 0 0 1-.6 2.6q-.7 1.4-.7 2.3.1.5-.4 1.7-.6 1.4-.7 2.2c-1.5 9.4-6.4 15.8-16 17.7-6.3 1.3-11.8-.2-15.6-6.3"/>
  <path fill="#fbbe51" d="M295.6 376q0 3.7-.5 7.9-1.1 1.3-3 1.7c-5.1.2-9.6.7-12.2 5.1q-.2.4-1.3 1L275 394q-4.7-3.8.6-6.8c6.6-3.7 13-7.5 20-11.2"/>
  <path fill="#e3c483" d="M806.2 317.3q2.2-.9 4.6-.7 2 .2 4.6 1.3l1.8-10.5q-.4 14.3-1.5 29.2c-1.8-7-4.2-13.6-9.5-19.3m-34.2-30-3.4 30.7c-.2 1.6.4 3.2 1 5q-.6 2.6-2.2 5.4a92 92 0 0 1 4.5-41"/>
  <path fill="#e2c699" d="M814 359.5q-.2 7.2-.2 14.6l.6 26.2c-.8-1.2-2.1-2.7-2.1-4.3q.5-18.1 1.6-36.5"/>
  <path fill="#f8d376" d="M269.7 458.4q-.5-19.8.1-40.2.8 4.9.8 10l.2 23.8q-.1 3-1.1 6.4"/>
  <path fill="#c7b296" d="M178.6 421.8c-3.2-4.9-6.7-10-9.5-15.3-2-3.9-3.3-8.2-5.2-12.4q-.6-3.7-.4-7.6c2 5.3 3.7 11 6 16.4z"/>
  <path fill="#e2c699" d="M907.2 408.7q-.8-.9-1.3-2.6-3 4.5-6.5 9a384 384 0 0 1 10.5-22.7q-.9 8-2.7 16.3m-.7-5.1"/>
  <path fill="#f8d376" d="M1138.8 473.5q15 .6 30.8 2a47 47 0 0 1-30.8-2"/>
  <path fill="#f7ce6b" d="M411.1 402q-1.5 1.4-3.1 3.6-3.1-6-5.6-13.5 1.5-.5 2.8-.2l-.2.3 1.7 1.9q.6.4 1.3 1.8 1.4 2 2.7 3.2.2 0 .3.8z"/>
  <path fill="#c7b296" d="M160.5 356.8q1.7 11 2.7 22.5-1.7-10.9-2.7-22.5m244.6 34.7q-1.1.3-2.8.2-2.7-6-4.7-12.3 3.9 5.7 7.5 12.1m-242.5-136q0 8.8-1 18 0-9 1-18"/>
  <path fill="#e2c699" d="M1710.7 300.8q3.2-5.4 6.9-11-2 6.5-5.1 13-1.2-1.1-1.8-2"/>
  <path fill="#c7b296" d="M636 371.9q2.4-6.7 5.4-13.5-1.1 6.3-3.5 13-1.4.6-2 .5"/>
  <path fill="#f2f4f8" d="M1743.6 384q-.5-5.9-.3-12.6 5.5 5.6.3 12.5"/>
  <path fill="#c7b296" d="M372.2 315.6q-1-7.2-1.2-15 1 7.3 1.2 15"/>
  <path fill="#f8d376" d="M280.3 390.7c2.2-4.4 6.7-5 11.4-5q-5.2 2.6-11.4 5"/>
  <path fill="#f2f4f8" d="M1741.6 396.7q-.5-.4-.9-1.6.9-3.7 2.2-7.8-.3 4.3-1.3 9.4"/>
  <path fill="#f8d376" d="M1110.8 463.6q5.6-1.4 12.2-2.4c-3.1 3.9-7.3 4.4-12.2 2.4"/>
  <path fill="#e2c699" d="M817.5 412.7q-1 .4-2.2.3-.7-3.7-.6-7.7 1.6 3.3 2.8 7.4"/>
  <path fill="#f2f4f8" d="M1733 348.5a82 82 0 0 1-8.8-5.3 82 82 0 0 1 8.8 5.3"/>
  <path fill="#f8d376" d="M270 412.4q.8-2.9 2.1-5.3-.4 4.3-1.6 9-.5-1.2-.5-3.7m872 51.2q-1 1-2.6 1.4c1.4-3.2-.1-5.2-3.2-7 4.2-1 5.1 2 5.8 5.6"/>
  <path fill="#e2c699" d="M911.1 387.6q.6-3.7 1.8-8-.6 3.8-1.8 8"/>
  <path fill="#f2f4f8" d="M1722 342.2q-4.1-.7-8.7-2.1c3.3-2.4 6-.1 8.6 2.1"/>
  <path fill="#c7b296" d="M164.8 235.4q0 4-1 8.2 0-3.9 1-8.2"/>
  <path fill="#f2f4f8" d="M1743.4 365.7q-1.6-2.3-3-5.4c2.7.7 4.3 2.2 3 5.4"/>
  <path fill="#e2c699" d="M914 371.6q.3-3 1.3-6.4-.3 3-1.2 6.4"/>
  <path fill="#f8d376" d="M299.6 380.3q.9-4 2.6-8.3-1 3.9-2.6 8.3"/>
  <path fill="#f2f4f8" d="M1740.3 357.8a33 33 0 0 1-4.2-5.5q2.3 2.3 4.2 5.5"/>
  <path fill="#f8d376" d="M275 394.4q1.4-1.4 3.4-2.4a27 27 0 0 1-3 5.1q-.4-1-.4-2.7"/>
  <path fill="#edc47a" d="M1710.4 301a5 5 0 0 1 1.8 2l-1 1.7q-1 0-2.3-.8.3-1.5 1.5-3"/>
  <path fill="#f8d376" d="M268.6 473.2q.3-2.3 1.4-5.1-.3 2.3-1.4 5.1"/>
  <path fill="#f8ce6d" d="M758.6 437.3q.3-2.5 1.6-5.2-.4 2.4-1.6 5.2"/>
  <path fill="#f8e7a7" d="M1355.4 293.2q.7 1.3.9 3.3a8 8 0 0 1-1-3.3"/>
  <path fill="#c7b296" d="M392.4 367.4q1 .7 2 2.2a6 6 0 0 1-2-2.2m-21.9-73.7a5 5 0 0 1-1.7-2.3q1 .9 1.7 2.3"/>
  <path fill="#e2c699" d="M905.5 418.1q-.2-1.2.3-2.9.2 1.2-.3 3"/>
  <path fill="#f8d376" d="M1185.6 469.3a8 8 0 0 1-.4-3.2q.5 1 .4 3.2"/>
  <path fill="#c7b296" d="M358.7 357.5q-.4-.8-.3-2.3.5.9.3 2.3m12.5-36.7a4 4 0 0 1-.2-2.3q.4 1 .2 2.3"/>
  <path fill="#f7ce6b" d="m636 371.9 1.7-.1q.3 1.4-.7 3.2-.8.2-.9.1l-.1-.5-.1-2.7"/>
  <path fill="#f9ce68" d="M1326.3 463.7q.8-1 2.6-1.6-.8.9-2.6 1.6m28.9-30q.5-.6 1.6-1-.4.7-1.6 1"/>
  <path fill="#f8d376" d="M1137.7 466.1q0 .9-.8 2 0-1 .8-2"/>
  <path fill="#f7ce6b" d="M602.2 440.8q-.2-.8.3-1.8.2.8-.3 1.8"/>
  <path fill="#f7cd6b" d="M1075.8 440.1q.7 0 1 .6-.4.7-1.6 1 0-.7.6-1.6"/>
  <path fill="#f9ce68" d="M1316.2 462.3q.7-.1 1.8.3-.7.2-1.8-.3"/>
  <path fill="#f8d376" d="M1130.2 458.4q.4-.6 1.6-.8-.6.6-1.6.8"/>
  <path fill="#f7ce6b" d="M601 444.8q-.1-.7.4-1.8.1.7-.3 1.8"/>
  <path fill="#e2c699" d="M814.5 452.2q.6.5.8 1.6-.6-.6-.8-1.6"/>
  <path fill="#f8d376" d="M273 404.7q-.3-.6.2-1.7.1.7-.3 1.7"/>
  <path fill="#c7b296" d="M359.2 351.7q-.3-.6 0-1.6.3.7 0 1.6"/>
  <path fill="#f8d376" d="M303.5 368.2q0-.9.9-2.2 0 1-.9 2.2"/>
  <path fill="#c7b296" d="M395.2 373.6q.8.2 1.3 1-.8-.2-1.3-1"/>
  <path fill="#e2c699" d="M904.7 422.2q-.5-.6-.6-1.7.1-.5.7-.5.3 1-.1 2.2"/>
  <path fill="#c7b296" d="m160.7 280.5.6.6-.3.4q-.5-.3-.6-.6zm475.5 94.9q.1-.3.5-.2.3.4-.1.9-.3 0-.4-.7"/>
  <path fill="#f9e6a0" d="M1030.7 324v-2.8c.3-3.9.4-7 .8-10.2q1.7-.8 2.8-1.8a49 49 0 0 1 38.8-15.1c5.4.4 10.6 2 16 3.3q1.3 2 2.1 3.8.3 1.3.2 3.8l-.5 2.7c-.2 11 1.2 22.3-2.7 33-.3 1 .4 2.2.6 3.3q.1.5-.4 1.7-3.6 6.3-6.5 12.2h-.3q-5.3 3-10 6c-8.2 5.1-18 3.9-25-2.6-9-8.3-11.9-19-13.7-30.5-.3-2.3-1.5-4.6-2.2-6.8m25.2-.6c4.3 4.2 10.5 5 14.2 2 4.3-3.6 5.3-9 2.4-13.3-3.6-5.1-9.2-6.5-14.4-3.5-3.8 2.2-5.2 9.2-2.2 14.8"/>
  <path fill="#f5c465" d="M1089 297.1c-5.3-1-10.5-2.6-15.9-3a49 49 0 0 0-38.8 15.1 5 5 0 0 1-2.8 1.4q.4-7.2 1.2-13.9.2-1.8.8-4.4.7-1 .4-1.2l1.9-4.9.3-1c7.2-14 15.5-18.7 30.9-17.2 7.2.7 12.1 5.5 16.6 11.3l.4.7 1 2z"/>
  <path fill="#f5e4a3" d="M1161.2 251.9a20 20 0 0 1-5 24.5c-8.2 6.6-19 7-26.4.5-2.4-2.1-4-5.1-6-8.4a29 29 0 0 1 29.7-16.3c2.5.5 5.1-.2 7.7-.3"/>
  <path fill="#f2c66f" d="M1161.2 251.5c-2.6.5-5.2 1.2-7.7.7-11-2-25.3 5.3-29.6 16a20.3 20.3 0 0 1 9.8-27.4c10.5-5 22-.8 27.5 10.7"/>
  <path fill="#f6e2a1" d="M1048.5 394.8c5.5 4 5.7 9.6 4 15.1-1.8 5.9-6.5 9.1-12.6 10-2.3.3-4.8-.6-7.6-1.5a92 92 0 0 1-3-12.6c4-8.4 10.7-11.3 19.2-11"/>
  <path fill="#b8c3c2" d="M1030.5 324.3q1.7 3 2.4 6.5c1.8 11.4 4.7 22.2 13.7 30.5 7 6.5 16.8 7.7 25 2.6q4.7-3 10-6c-3.1 6.8-9 10.1-16.2 11.1-16.3 2.2-24-8-29.4-20-3.3-7.5-4-16.2-5.5-24.7"/>
  <path fill="#eac172" d="M1048.4 394.5c-8.4 0-15.2 2.9-19.5 11.3q-2.8-2.2-4.9-4.7c4-11 15.2-14.2 24.4-6.6"/>
  <path fill="#f3e1a2" d="M1129.2 197.6q4.6 7.3-1.8 12.6c-3.6 3-8.3 2.4-12.3-2.1 1-5 4.3-6.3 8.1-7.2 2.2-.5 4-2.2 6-3.3"/>
  <path fill="#e2bf80" d="M1129.1 197.3c-1.9 1.4-3.7 3-5.9 3.6-3.8 1-7.1 2.1-8.2 6.8-3.4-4.2-2.8-8.9 1.6-12.4 3.9-3.2 8.8-2.6 12.5 2"/>
  <path fill="#b8c3c2" d="M1089 343.7c-.4-.8-1.1-2-.8-3 3.9-10.7 2.5-22 2.7-33q0-.9.5-2.3c.9 3.3 2.4 7 2 10.5-.8 9.3-2.6 18.4-4.3 27.8"/>
  <path fill="#e3c483" d="M1023.7 401.4c1.8 1.3 3.2 3 5 4.6q1.8 5.9 3.3 12.1-10.7-2.5-8.3-16.7"/>
  <path fill="#b8c3c2" d="M1089.2 297.4q-2.2-7.3-4.1-15 3.2 8.7 6.3 18.4-1.1-1.2-2.2-3.4m-56.8-.4q-.4 6.3-1.2 13.6l-.4 10.3q.4-11.5 1.6-24m49.9 60.9q2.5-5.8 6-11.8-2.5 5.8-6 11.8"/>
  <path fill="#f7cd6b" d="M1004.6 445.3q-.4.3-1.5 0 .5-.3 1.5 0"/>
  <path fill="#b8c3c2" d="M1035.9 285.3c.2 0 .1.5 0 .5l-.3-.1q0-.2.3-.4m-2.2 5.8q.5.4 0 .8-.7-.3 0-.8m50.5-11.2q-.3 0-.4-.3l.4-.1z"/>
  <path fill="#f4c467" d="M1574 285c-4-3-5.3-12.3-2.6-18.2a43 43 0 0 1 25.8-22.1 56 56 0 0 1 29.8-3.1 20 20 0 0 1 13.4 31 48 48 0 0 1-29.3 19.3 54 54 0 0 1-13.6 1.4c5.4-6.3 11.8-11.7 16.6-18.2 5.8-8 2.6-16.7-6.2-19.3-6.9-2-19.5 3.9-24 11.6z"/>
  <path fill="#f9e4a0" d="M1574 285.3a454 454 0 0 1 9.9-17.9c4.5-7.7 17.1-13.6 24-11.6 8.8 2.6 12 11.3 6.2 19.3-4.8 6.5-11.2 11.9-17 18-8.8.9-17.1.2-23.2-7.8"/>
  <path fill="#edc47a" d="M1685.7 322.2q-7.9 4.6-16.4 8.8c-3 1.5-6.1 2.4-9.9 3.9q2.1 1.9 3.5 3.5l-19.2-.4c-11-.2-21.9 8-22.6 20.1a326 326 0 0 1-28.4-2.3c1.5-1 3.7-1 4.5-2.2 1.7-2 3.2-4.4 3.6-7 .2-1.5-1.1-4.2-2.6-5.1-3.3-2.1-10-.3-12 3-2.6 3.8-1.4 7.2 1.7 10.2a26 26 0 0 1-19.3-20.5q4.8.2 9.3.7c23.3 3.4 46.5 3.8 69.9 0 13.3-2.3 25.5-7.1 37.9-12.7"/>
  <path fill="#f5e4a3" d="M1546.8 350c3.6 8.9-1.6 17-7 21.5a17.6 17.6 0 0 1-23.7-.7 9 9 0 0 0-2-1.9l-.1-.3-1.4-1.7s-.3-.2 0-.5l2.4-3.6c1.5-2.9 2.5-6.2 4.5-8.7 5.7-7 13.4-7.9 23.4-3.6 1 .4 2.6-.3 4-.5"/>
  <path fill="#f0c671" d="M1546.9 349.7c-1.4.5-3 1.2-4 .8q-15-6.6-23.4 3.6c-2 2.5-3 5.8-4.5 8.7a19 19 0 0 1-2.3 3.4c-5.6-6.8-5-14.2-1-21.2a18 18 0 0 1 19-10q12.7 1.8 16.2 14.7"/>
  <path fill="#f3e1a2" d="M1697.1 394c-3.3 5.4-8.6 6.5-14.2 5.8-6-.7-10-4.8-12.4-10.2q-4.5-10.6 6-18.4-1 2.9-3 5.7c16.8-4 19.7 5.9 18.6 19z"/>
  <path fill="#f2c771" d="m1697.4 393.9-5.3 2c1.1-13.1-1.8-23-18.6-19q2-2.8 3.4-5.7c6.3-4.8 14.5-4.3 19.4.9a16 16 0 0 1 1.1 21.8"/>
  <path fill="#f6e2a1" d="M1588 354.9c-3.2-3.2-4.4-6.6-1.8-10.5 2-3.2 8.7-5 12-3 1.5 1 2.8 3.7 2.6 5.3-.4 2.5-2 5-3.6 7-.8 1-3 1-4.8 1.8-1.2.1-2.1 0-3.5-.2l-.4-.3z"/>
  <path fill="#edc47a" d="M1695.7 315.4q-.8 1.3-2.6 2.5.8-1.2 2.6-2.5m-7 4.9a4 4 0 0 1-1.7 1.6q.3-.9 1.7-1.6m3-2a4 4 0 0 1-1.7 1.6q.4-.9 1.7-1.6m7-5.3q-.4 1-1.6 1.9.3-.9 1.6-1.8"/>
  <path fill="#f0c671" d="M1514.2 369.2q.8.3 1.7 1.3-.7-.3-1.7-1.3m-1.6-2q.6.2 1.4 1.3-.6-.1-1.4-1.3"/>
  <path fill="#edc47a" d="M1699.8 312.1q.2.5-.6.8 0-.3.6-.8m-111.3 43"/>
  <path fill="#f5c463" d="M482.9 313c-3.2-18.7 3-40.3 20-48.5 13.1-6.4 30-4.9 39.9 8.4 14 18.7 15.4 49-.5 68.2a32 32 0 0 1-42.2 6q-.9-1-1.3-1l.2-.3c1.4-1.2 2.7-2.4 4.1-2.7 12-2.1 19.3-9.4 23.4-20.3 2.2-6-2-17.9-7.5-19.4a57 57 0 0 0-17-1.8c-8.2.3-13.5 6.3-19.1 11.4m45.1-16c2-1.8 4.8-3.2 6-5.4 2-3.9 1.8-8-2-11.2-3-2.5-6-3.2-9.5-1-3.8 2.3-6 7.6-5 11.4 1.2 5.3 5 6.5 10.5 6.2"/>
  <path fill="#f8e49b" d="M482.8 313.5c5.7-5.6 11-11.6 19.2-11.9 5.7-.1 11.6.2 17 1.8 5.5 1.5 9.7 13.4 7.5 19.4a29 29 0 0 1-23.4 20.3c-1.4.3-2.7 1.5-4.1 2.7-7.4-3.6-11.1-10.5-13.6-17.9-1.5-4.4-1.9-9.3-2.6-14.4"/>
  <path fill="#f6e2a1" d="M596 232a16 16 0 0 1 5.2 18.6q-3.7 10.7-15 12.1-12 1.6-17.4-10.1 2-2 3.1-3.5c1.6-2.6 2.7-5.5 4.5-8 5-6.3 12.5-7.3 19.7-9.2"/>
  <path fill="#f5e4a3" d="M433.5 376.2q-.1.1-.4-.4-4.3-9.2.2-17.9c5-5.1 10.2-9.3 18-7.6q2.5.6 4.6.7v.4l1 2.5c3.1 12.2-6.6 23.4-20.8 22.9q-1.8-.6-2.6-.6"/>
  <path fill="#c7b296" d="M598.7 417.2c-5.5 3.8-11 8.2-17.2 11.4a143 143 0 0 1-52.6 13.6q-35.2 3.6-68.6-7.2c-5-1.6-9.5-4.6-14.3-7.3 5 1.6 10 3.9 15.1 5.3 9.4 2.6 18.8 6 28.4 6.7 15.2 1.1 30.7 1.5 46 0 21-2 41.1-8.2 59-20.3q1.8-1.2 4.2-2.2"/>
  <path fill="#eac172" d="M596 231.6c-7 2.2-14.7 3.2-19.6 9.6-1.8 2.4-3 5.3-4.5 7.9q-1.1 1.5-3.1 3.1c-4.1-6.4-2.8-13.6 3.1-19.6a17 17 0 0 1 21-3.3q1.5.8 3 2.3"/>
  <path fill="#e2bf80" d="M433 358a20 20 0 0 0 0 17.7c-6.5-1-12.2-7.5-13.5-15a19 19 0 0 1 9.2-20c10.9-6.1 22-2.2 27.2 10q-2.2.4-4.5-.8c-.5-2.1-.4-4.1-1.4-5.2-3.6-4.4-11.6-6.3-16.4-4-6.7 3.4-12.8 7.4-12.6 16.2.1 4.7 1.3 5.5 5.7 3.8z"/>
  <path fill="#f8e49b" d="M589.8 292q-1.5-.8-2.8-2.7c.3-2 .2-3.9 1-4.8 4.1-4.3 8.7-2.7 13.3-.6q1.1 6.4-6 8.2l-2.2.6q-1.2 0-3-.4z"/>
  <path fill="#e2c699" d="M601.4 283.5c-4.7-1.7-9.3-3.3-13.4 1-.8.9-.7 2.7-1.1 4.5-3-2.2-3-5.3-1.3-8.5q3.4-5.5 9.8-4.4c4.1.5 5.8 3.3 6 7.4"/>
  <path fill="#c7b296" d="M609.7 408.2q-4.5 4.5-10.2 9 4.6-4.5 10.2-9m-170.6 15.3q-5.5-3-11.2-7 5.5 3 11.2 7M632.4 379a95 95 0 0 1-5.8 10q2.5-5 5.8-10m-205.2 36.5a31 31 0 0 1-5.2-4 31 31 0 0 1 5.2 4M635.5 372q.5 1 .4 2.6a21 21 0 0 1-2.8 4.1q.8-3.1 2.4-6.7M444 426.6q-1.8-.5-4-2 2 .5 4 2M411.4 402q-.4-.7-.3-1.9 1.5.8 2.8 2.6-1 0-2.5-.6m208.2-4.2q-.6 1.5-2.2 3.1.6-1.5 2.2-3.1m-208.9.9a9 9 0 0 1-2.6-2.7 9 9 0 0 1 2.6 2.7"/>
  <path fill="#e2bf80" d="M457.1 353.7a5 5 0 0 1-1.1-2.2 5 5 0 0 1 1.1 2.2m-23.5 22.8q.9-.3 2 .1-.6.3-2-.1"/>
  <path fill="#c7b296" d="M625.6 389.9a4 4 0 0 1-1.1 2.1q0-.9 1-2.1m-218.8 3.9q-.7-.4-1.6-1.6.9.3 1.6 1.6m216.8-1a4 4 0 0 1-1 2.2q0-1 1-2.2"/>
  <path fill="#e2c699" d="M593.2 293q.7-.7 1.8-.9a3 3 0 0 1-1.8.8"/>
  <path fill="#c7b296" d="M421.4 410.5q-.7 0-1.5-1 .8 0 1.5 1"/>
  <path fill="#f8e49b" d="M498.9 346.4q.3-.2 1 .4-.4.1-1-.4"/>
  <path fill="#c7b296" d="M620.9 396.3q.2.4-.3.7-.4-.4.3-.7m-206 7.5q-.4.2-1-.5.4 0 1 .5m1.9 2.1q-.5.3-.9-.5.5-.1.9.5m1.9 2q-.4.3-.8-.4.5-.5.8.4"/>
  <path fill="#f7e5a2" d="M848.9 323.1c-4.8-10.2-2.2-19.4 4-28 6.2-8.5 15-10.6 24.7-8.8a20 20 0 0 1 14 10.3c-4-1.3-4.3 1.4-4.6 3.7-2.5 14.7-19.1 25.5-32.5 22-1.7-.5-3.7.5-5.6.8"/>
  <path fill="#f4c56c" d="M848.8 323.5c2-.7 4-1.7 5.7-1.3 13.4 3.6 30-7.2 32.5-22 .3-2.2.6-5 4.5-3.2a27 27 0 0 1 3 30c-4.2 8.8-11.3 14.5-21.5 14.5q-16.6 0-23.6-15.2-.4-1.1-.6-2.8"/>
  <path fill="#e2c699" d="M861.2 417.5q-1.1.4-2.2-.1c-6.8-4-12.7-2-18.3 2.4q-1.5 1.2-3.7 2c6.8-8.9 14.5-10.4 24.2-4.3"/>
  <path fill="#e3c483" d="M809 264.6c-2.7-.6-5.5-2.4-8.2-2.3-4.8.3-9.5 1.7-14.6 2.6 3.7-5.5 15.4-7.5 22.8-.3"/>
  <path fill="#e2c699" d="M887.7 425.4c-4.5 4-13.7 3.4-18.7-1.8 5.8 2.2 11.8 4.4 18.7 1.8"/>
  <path fill="#e3c483" d="M782.8 267.4q-3.5 6.7-8.1 13.6 3.6-6.7 8-13.6"/>
  <path fill="#e2c699" d="M835.7 422.3q-4.6 5.4-10.7.5 5-.5 10.7-.5"/>
  <path fill="#e3c483" d="M817.3 284.7q-1.6-4.7-2.8-10.3 1.6 4.8 2.8 10.3m-3.1-12.9q-2.6-2.8-5.1-6.6 2.6 2.8 5.1 6.6"/>
  <path fill="#e2c699" d="M865.8 420.8q-1.8-.7-3.8-2.3 1.8.6 3.8 2.3m26.9 1.3q-.3.9-1.6 1.8.4-.9 1.6-1.8m-24.5.4a4 4 0 0 1-2.2-1q1 0 2.2 1m-48.5-5.8q-.8-.4-1.5-1.8.8.5 1.5 1.8"/>
  <path fill="#e3c483" d="M773.6 281.9q0 .9-.6 2 0-.8.6-2"/>
  <path fill="#e2c699" d="M896.8 418.2q.3.3-.4.8-.5-.5.4-.8m-74.8 1.5q-.5.2-.9-.5.3 0 .8.5m1.1 1q-.5.3-1-.5.4 0 1 .5"/>
  <path fill="#c7b296" d="M267.2 344.4c1.7 5.4 4 11.1 4.6 17q3.2 24.5-5.9 48.2-1 1.4-2.3 2.5c1.8-8.8 4.4-17.5 5.8-26.4q3-18-1.8-36-.5-2.4-.4-5.3m-4.7 68.5c-2.8 11.9-19.7 20.6-29.8 14.8-6.9-4-13.2-4.2-20.5-.8 4.7-5 11.5-5.7 18.3-2.2 10 5.2 15 4.7 23.3-2.7 3-2.7 5.6-6 8.7-9.1m-58.8 18.7c-4 3.9-8.8 3.1-13.7.3q6.4-.5 13.7-.3m-20.7-5a19 19 0 0 1-3.9-3.5q2 1.2 4 3.5m4.9 4a7 7 0 0 1-2.8-1.6 7 7 0 0 1 2.9 1.6m21.6-2.5q-.4.9-1.7 1.7.3-.9 1.7-1.7m-3 1.9q0 .7-1.2 1.1.3-.5 1.2-1"/>
  <path fill="#f7e5a2" d="M1279.1 325.5a28 28 0 0 1-11.5 29.8c-11 6.4-21.7 4.9-31.5-5.4.3-3.8 0-7.2 1.2-9.9 5-11 16.5-20.2 30.6-17.5q5.5 1.1 11 2.5l.2.2z"/>
  <path fill="#f4c76c" d="M1279 324.6q-5.6-.9-11.1-2.1c-14-2.7-25.5 6.4-30.6 17.5-1.2 2.7-.9 6.1-1.3 9.6-8.8-8.7-10-23.7-3-35.2a24.5 24.5 0 0 1 28.7-10.3c9.7 3.1 15.1 10.3 17.2 20.5"/>
  <path fill="#f5e4a3" d="M1426.8 237.9c2.4 8.2-5 16.5-13.7 17.7-7.1 1-17-5.9-16.3-15.3 1.3-.8 2.3-1 3-1.6 7.9-6.7 12.2-7.2 21.5-2.6z"/>
  <path fill="#f2c66f" d="M1427 237.5q-3-.2-5.7-1.4c-9.3-4.6-13.6-4-21.5 2.6q-1 .8-2.9 1.2a14 14 0 0 1 9.3-15.6c6.8-2.4 15 .5 18.6 6.8q1.4 2.8 2.1 6.4"/>
  <path fill="#e5d9a9" d="M1278.1 380c1.5 4-.2 7.7-3.6 9-2.9 1-7 .7-9.7-.7-3.7-2-4.8-6-2.3-10q1 2.2.8 2.2z"/>
  <path fill="#e2bf80" d="M1278.1 379.6q-6.9.7-14.8 1l-.4-2.5c.7-4.2 3.6-5 7-5q6.4-.1 8.2 6.5"/>
  <path fill="#f4c76c" d="M1279.3 325.5q-.2 0-.2-.2h.2z"/>
  <path fill="#fcf5e1" d="M1259 454.9c1.6 3.8-.7 4.8-3.4 5q-6.8.3-13.4 0c-1.2 0-3-1-3.4-2s.6-3 1.6-3.6c6.1-4.2 12.2-1.8 18.6.6M497 481l-.5-.2c-4.2-5-6.3-10.5-3.5-18q1.8 2.5 2.7 4.6c1.5 4 2.9 7.8 8.2 8 1 0 2 2.1 3 3.2q-2.4 1.7-5.5 3.5c-.9 0-1.3-.1-2.2-.4q-1.4-.7-2.2-.7m1122.3-17.9 2.2.8 4.5 2.4c-1.9 1-3.7 2.6-5.5 2.5-5.3-.2-10-6.4-9.9-13.2zM237.8 473c-2.8-5-1.9-9.9-1.3-14.7l1.4-.2c.9 2.5 1.4 5.2 2.9 7.3 1.3 2 3.7 3.1 5.7 4.6l3 2.4c-1 1.2-2 3.4-3 3.3-2.8-.3-5.6-1.5-8.7-2.7m-63-30c1.2 0 3.1-.3 3.5.3q2.7 4.7 5 9.7-3.1-.2-7-1.2l-2.2-4.8.2-1.8z"/>
  <path fill="#fce390" d="M173.8 447.2q1.3 1.8 2.2 4.4-.1.5-.8.5-1.2-.7-2.2-1.8.1-1.6.8-3.1m.8-4.2q.2.7-.3 1.8-.2-.7.3-1.8"/>
  <path fill="#fbefc9" d="M1145.4 468.1q-.8.1-1.1-.5l-.3-2.6 1-1.6q7.7-2.9 15.4-4.8c1.3-.3 3 1 4.4 1.6-1.1 1-2 2.4-3.3 2.8q-7.7 2.6-16.1 5.1"/>
  <path fill="#fcf5e1" d="M680.8 445c-5.8 0-8.4-3.4-9.3-7.9-.7-3.5-2-7.6 2-11.8.7 2.1.9 3.3 1.4 4.4 1.6 3.5 2 7.8 7 8.7 1.1.2 3 2.5 2.7 3q-1.2 2-3.8 3.6m141.4-1.3q1.4 1.4 2.5 3.2 2.2 3 4.5 5.8l2.5 3.2c-1.3.7-3.2 2.3-3.9 1.9-2.4-1.5-5.4-3.3-6.5-5.7-1-2.2.3-5.4.9-8.4"/>
  <path fill="#fde598" d="M794.3 296.7c-8.8.5-14.6-5-13.2-12.2 1-4.6 3.8-8 8.3-8 3.3 0 7.2 1.4 9.7 3.5 3 2.7 4.3 7 1.4 10.8q-2.6 3.1-6.2 6"/>
  <path fill="#f7ce6b" d="M497 481.3q.8-.2 1.9.3-.8.2-1.9-.3"/>
  <path fill="#edc47a" d="M1675.3 341.3q1.5-.5 3.6-.1-1.5.4-3.6 0m-5.1-.9q.6-.3 1.8.1-.7.3-1.8-.1"/>
  <path fill="#fbefc9" d="M983.2 467.2c.3-4.1-1.5-8.3 2.1-13 1.4 5.2 2.6 9.2 3.5 13.4.1.6-1.4 1.5-2.5 2.4q-1.6-1.1-3-2.8"/>
  <path fill="#f7cd6b" d="M1143.7 465q.4 1 .4 2.6a6 6 0 0 1-2-2.2q.4-.5 1.6-.4"/>
  <path fill="#fcce6b" d="M1055.6 323.1c-2.7-5.3-1.3-12.3 2.5-14.5 5.2-3 10.8-1.6 14.4 3.5 2.9 4.2 1.9 9.7-2.4 13.3-3.7 3-10 2.2-14.5-2.3"/>
  <path fill="#fce390" d="M527.6 297c-5.2.3-9-1-10.2-6.2-1-3.8 1.3-9.1 5-11.5 3.5-2.1 6.6-1.4 9.6 1.1 3.8 3.3 4 7.3 2 11.2-1.2 2.2-4 3.6-6.4 5.4"/>
  <path fill="#f8c362" d="m433.3 357.9-6.6 2.8c-4.4 1.7-5.6 1-5.7-3.8-.2-8.8 5.9-12.8 12.6-16.1 4.8-2.4 12.8-.5 16.4 3.9 1 1 1 3 1.2 5-7.7-1-12.9 3-18 8.2"/>
</svg>