<svg version="1.1" viewBox="0.0 0.0 800.0 600.0" fill="none" stroke="none" stroke-linecap="square" stroke-miterlimit="10" xmlns:xlink="http://www.w3.org/1999/xlink" xmlns="http://www.w3.org/2000/svg"><clipPath id="p.0"><path d="m0 0l800.0 0l0 600.0l-800.0 0l0 -600.0z" clip-rule="nonzero"/></clipPath><g clip-path="url(#p.0)"><path fill="#000000" fill-opacity="0.0" d="m0 0l800.0 0l0 600.0l-800.0 0z" fill-rule="evenodd"/><path fill="#587189" d="m148.61154 250.62993l-0.7664032 0.055114746l-1.4803162 0.275589l-1.3149567 0.6010437l-1.2047272 0.8215332l-0.98687744 0.9868622l-0.7664032 1.2047272l-0.6036682 1.3700867l-0.27296448 1.4252014l0 0.76638794l0 68.16275l0.055114746 1.0419922l0.7664032 1.8608704l1.3700867 1.4252014l1.8635101 0.76641846l1.0393677 0.055114746l1.0971222 -0.055114746l1.8635101 -0.76641846l1.4225769 -1.4252014l0.7690277 -1.8083801l0.10760498 -1.0944824l0 -64.81891l26.356964 65.20209l0.6010437 1.0971375l1.5354309 1.8083801l1.9186401 1.2047424l2.1364746 0.6010437l2.2467194 0l2.1364899 -0.6010437l1.9160156 -1.2047424l1.5905457 -1.8083801l0.54855347 -1.0971375l26.35434 -65.20209l0 64.81891l0.11022949 1.0944824l0.82151794 1.8083801l1.4252014 1.4252014l1.8609009 0.76641846l1.0419922 0.055114746l1.0419922 -0.055114746l1.8635101 -0.76641846l1.4225769 -1.4252014l0.7690277 -1.8608704l0.052490234 -1.0419922l0 -68.16275l0 -0.76638794l-0.32807922 -1.4252014l-0.54855347 -1.3700867l-0.8215332 -1.1495972l-0.9868622 -1.0419922l-1.2047272 -0.8215332l-1.3149719 -0.6010437l-1.4251862 -0.275589l-0.7664032 -0.055114746l-3.7795258 0l-1.1522369 0.055114746l-2.0813599 0.71391296l-1.8635254 1.2598419l-1.3700714 1.6981506l-0.49343872 1.0393829l-25.916016 64.65616l-25.916016 -64.65616l-0.49343872 -1.0393829l-1.3700714 -1.6981506l-1.8635254 -1.2598419l-2.0813599 -0.71391296l-1.1495972 -0.055114746z" fill-rule="evenodd"/><path fill="#587189" d="m247.4567 272.11023l-1.0393677 0.055114746l-1.8635254 0.8215332l-1.3700714 1.4225769l-0.7664032 1.8635254l-0.055130005 1.0419922l0.055130005 1.1495972l0.38319397 1.0419922l21.477707 52.27298l-7.4514465 19.065613l-0.27297974 0.9317627l-0.055114746 0.87661743l0.055114746 1.0419922l0.7113037 1.8084106l1.3700562 1.3700867l1.7532959 0.76638794l1.0419922 0.055114746l0.8215332 -0.055114746l1.4802856 -0.49343872l1.2047424 -0.9317627l0.87664795 -1.3149414l0.3831787 -0.7113037l31.175873 -74.90286l0.27557373 -0.9842529l0.055114746 -0.98687744l-0.055114746 -1.0419922l-0.76901245 -1.8635254l-1.4225769 -1.4225769l-1.8084106 -0.8215332l-1.0971069 -0.055114746l-0.8215332 0l-1.4251709 0.49343872l-1.2047424 0.87664795l-0.9317627 1.2598267l-0.3831787 0.76641846l-17.916016 43.39633l-17.59056 -43.61679l-0.32807922 -0.7113037l-0.98687744 -1.1495972l-1.2598419 -0.8215332l-1.4252014 -0.49343872z" fill-rule="evenodd"/><path fill="#587189" d="m334.4672 281.2047l1.3700867 0.055145264l2.685028 0.32806396l2.5196838 0.6036682l2.4120789 0.9317627l3.3963318 1.7532959l3.9448853 3.123352l1.7007751 1.8084106l0 23.94226l-1.7007751 1.8083801l-3.9448853 3.0682373l-3.3963318 1.8084106l-2.4120789 0.87664795l-2.5196838 0.65878296l-2.685028 0.32809448l-1.3700867 0l-2.026245 -0.055145264l-3.7270508 -0.65615845l-3.3963013 -1.3149414l-2.9580078 -1.9186401l-2.5223083 -2.6299438l-1.9711304 -3.1784668l-1.3700867 -3.8346558l-0.7112732 -4.4934387l-0.055145264 -2.4645386l0.055145264 -2.4671936l0.7112732 -4.438324l1.3700867 -3.8346558l1.9711304 -3.2335815l2.5223083 -2.574829l2.9580078 -1.9737549l3.3963013 -1.3149414l3.7270508 -0.65615845l2.026245 -0.055145264zm23.233582 -34.354324l-1.0971069 0.055130005l-1.8635254 0.82151794l-1.4225464 1.4776917l-0.76904297 1.9186249l-0.052490234 1.0971222l0 27.99736l-1.9737549 -2.026245l-3.2335815 -2.4671936l-2.2992249 -1.3674316l-2.4120789 -1.0971069l-2.5747986 -0.8215332l-2.685028 -0.6036682l-2.8504028 -0.27297974l-1.4776917 -0.055114746l-2.5747986 0.11022949l-5.097107 0.98687744l-3.671936 1.4225769l-2.354309 1.2073364l-2.1916199 1.4776917l-2.1364746 1.6981812l-1.9186401 1.9186401l-1.7532654 2.1915894l-1.5905762 2.356964l-1.3674316 2.5747986l-1.1522522 2.7952576l-0.87661743 3.0682678l-0.60369873 3.230957l-0.32806396 3.3989563l0 1.8084106l0 1.8057556l0.32806396 3.454071l0.60369873 3.230957l0.87661743 3.013153l1.1522522 2.7952576l1.3674316 2.6299133l1.5905762 2.356964l1.7532654 2.1364746l1.9186401 1.9186401l2.1364746 1.6981812l2.1916199 1.4776917l2.354309 1.2624512l3.671936 1.4225769l5.097107 0.98687744l2.5747986 0.055114746l1.4776917 0l2.8504028 -0.27297974l2.685028 -0.6036682l2.5747986 -0.87664795l2.4120789 -1.0944824l2.2992249 -1.3700562l3.2335815 -2.4671936l1.9737549 -1.9711304l0 2.9580078l0.10760498 1.0419922l0.8215332 1.8083801l1.4252014 1.3674622l1.8083801 0.7138977l1.0419922 0.11026001l1.0393677 -0.11026001l1.8084106 -0.7138977l1.4252014 -1.3674622l0.8215332 -1.8083801l0.11022949 -1.0419922l0 -74.07875l-0.055114746 -1.0971222l-0.76641846 -1.9186249l-1.3700867 -1.4776917l-1.9186096 -0.82151794l-1.0945129 -0.055130005z" fill-rule="evenodd"/><path fill="#587189" d="m404.82153 280.27298l1.3700562 0.055114746l2.8504028 0.49343872l2.7926636 0.9317627l2.685028 1.4776611l2.4120789 2.0289001l2.026245 2.5747986l1.5879211 3.1784668l0.9317627 3.779541l0.22045898 2.1915894l-33.69815 0l0.22045898 -2.1915894l0.9317627 -3.779541l1.5328064 -3.1784668l2.0813904 -2.5747986l2.3569336 -2.0289001l2.6850586 -1.4776611l2.7952576 -0.9317627l2.7926636 -0.49343872l1.4252014 -0.055114746zm0 -8.766418l-1.7532959 0.055114746l-3.341217 0.32809448l-3.0682373 0.65878296l-2.7952576 0.9317627l-2.5747986 1.2047119l-2.356964 1.4776917l-2.1364746 1.7532959l-1.9186401 1.9186401l-1.6430664 2.0813599l-1.4251709 2.3018188l-1.8084106 3.671936l-1.6430359 5.3700867l-0.76641846 5.643036l-0.055114746 2.8504028l0 1.8057556l0.27297974 3.3989563l0.49343872 3.1784668l0.76638794 3.0131226l0.98687744 2.7926636l1.2047424 2.6299133l1.4251709 2.356964l1.6981812 2.1915894l1.9186401 1.9186401l2.0813599 1.6981506l2.3569336 1.4803162l2.5197144 1.2598572l2.7401428 0.98687744l2.902893 0.76638794l3.123352 0.49343872l3.3438416 0.27297974l1.6981506 0l3.561676 -0.055114746l5.8635254 -0.7113037l4.711273 -1.3700562l4.0 -1.8084106l1.8635254 -1.0419922l0.6010437 -0.38320923l1.0419922 -0.87661743l0.8215332 -1.0945129l0.43832397 -1.2073364l0.055114746 -0.65615845l-0.055114746 -0.9317627l-0.7112732 -1.6430664l-1.2598572 -1.2073364l-1.6456604 -0.65615845l-0.9317627 -0.055114746l-0.4908142 0l-1.0419922 0.27294922l-0.49343872 0.2204895l-1.5879211 0.76638794l-3.3438416 1.3149719l-3.669281 0.9317627l-4.330719 0.43829346l-2.464569 0.055145264l-2.3018494 -0.055145264l-4.0551147 -0.6010437l-3.561676 -1.1522217l-3.0131226 -1.6981506l-2.464569 -2.1916199l-1.9737549 -2.685028l-1.4252014 -3.123352l-0.92910767 -3.4514465l-0.27560425 -1.9186401l38.73752 0l1.0420227 -0.055114746l1.9186096 -0.7113037l1.4252014 -1.4252014l0.8215332 -1.8634949l0.055114746 -1.0944824l-0.11022949 -2.8504028l-0.87664795 -5.4776917l-1.7532654 -5.097107l-1.9186401 -3.5065613l-1.5328064 -2.1365051l-1.7008057 -1.9711304l-1.9160156 -1.8083801l-2.1364746 -1.5905457l-2.356964 -1.3700867l-2.5196838 -1.1495972l-2.7401428 -0.87664795l-2.9055176 -0.6036682l-3.123352 -0.27297974l-1.5879211 -0.055114746z" fill-rule="evenodd"/><path fill="#587189" d="m444.4908 272.0551l-1.0393677 0.11022949l-1.8635254 0.8215332l-1.3700867 1.4225769l-0.76638794 1.8635254l-0.11022949 1.0419922l0.055114746 0.65615845l0.27294922 1.2073364l0.27560425 0.54592896l19.834656 47.50656l0.49343872 0.9317627l1.2598267 1.4776917l1.6430359 1.0971069l1.8635254 0.65618896l1.0393677 0.055114746l1.207367 0l0.9842529 -0.055114746l1.9186096 -0.65618896l1.5905762 -1.0971069l1.3149414 -1.5328064l0.43832397 -0.87664795l19.88977 -47.50656l0.21783447 -0.54592896l0.27297974 -1.2073364l0.055114746 -0.65615845l-0.055114746 -1.0419922l-0.76641846 -1.8635254l-1.4252014 -1.4225769l-1.8608704 -0.8215332l-1.0419922 -0.11022949l-0.76641846 0.055114746l-1.4252014 0.38320923l-1.2047119 0.8215332l-0.9317627 1.0944824l-0.38320923 0.65878296l-17.480316 44.27298l-17.422577 -44.27298l-0.38580322 -0.65878296l-0.9291382 -1.0944824l-1.2624817 -0.8215332l-1.3674316 -0.38320923l-0.76904297 -0.055114746z" fill-rule="evenodd"/><path fill="#587189" d="m511.3386 248.6588l-1.2047424 0.10760498l-2.0839844 0.87927246l-1.5879211 1.5879211l-0.87664795 2.0813599l-0.11022949 1.2047272l0 0.43832397l0.11022949 1.2073364l0.87664795 2.0813599l1.5879211 1.5879517l2.0839844 0.87661743l1.2047424 0.055145264l0.65615845 0l1.2073364 -0.055145264l2.0813599 -0.87661743l1.5879517 -1.5879517l0.87664795 -2.0813599l0.055114746 -1.2073364l0 -0.43832397l-0.055114746 -1.2047272l-0.87664795 -2.0813599l-1.5879517 -1.5879211l-2.0813599 -0.87927246l-1.2073364 -0.10760498zm0.27294922 23.286087l-1.0944824 0.055114746l-1.9186401 0.87664795l-1.4252014 1.4252014l-0.7112732 1.9711304l-0.055114746 1.0419922l0 48.984253l0.11022949 1.0419922l0.8215332 1.8083801l1.4252014 1.3674622l1.8083801 0.7138977l1.0393677 0.11026001l1.0420227 -0.11026001l1.8083496 -0.7138977l1.4252319 -1.3674622l0.8215332 -1.8083801l0.11022949 -1.0419922l0 -48.984253l-0.055114746 -1.0419922l-0.76904297 -1.9711304l-1.4225464 -1.4252014l-1.8635254 -0.87664795l-1.0971375 -0.055114746z" fill-rule="evenodd"/><path fill="#587189" d="m562.021 271.50656l-1.5328369 0.055114746l-2.9605713 0.21786499l-2.9580078 0.54855347l-2.795288 0.76638794l-2.7375488 0.98687744l-2.5774536 1.2598572l-2.4094238 1.4803162l-2.3018188 1.6981506l-2.0813599 1.9737549l-1.9186401 2.1364746l-1.6981812 2.4094543l-1.4251709 2.577423l-1.204773 2.7926636l-0.9317627 3.0131226l-0.6036377 3.1784668l-0.32806396 3.3989563l-0.055114746 1.7532959l0.055114746 1.8057556l0.32806396 3.3438416l0.6036377 3.2335815l0.9317627 2.9580078l1.204773 2.8477783l1.4251709 2.577423l1.6981812 2.3543396l1.9186401 2.1915894l2.0813599 1.9186401l2.3018188 1.7532654l2.4094238 1.4803162l2.5774536 1.2047424l2.7375488 1.0419922l2.795288 0.76638794l2.9580078 0.49343872l2.9605713 0.27297974l4.0 0l4.876648 -0.65615845l4.7113037 -1.3700867l4.4383545 -2.0839844l2.0813599 -1.3700867l0.54852295 -0.32809448l0.8215332 -0.8215027l0.60369873 -1.0419922l0.27294922 -1.1496277l0.055114746 -0.6036682l-0.055114746 -0.8215027l-0.65618896 -1.6430664l-1.2073364 -1.2598267l-1.5328369 -0.8215332l-0.8765869 -0.055114746l-0.6588135 0l-1.2598267 0.38320923l-0.60369873 0.32806396l-1.4776611 0.7139282l-2.8504028 1.3149414l-3.0682373 0.9842529l-3.6168213 0.54855347l-2.1364746 0.055145264l-2.4094849 -0.055145264l-4.4382935 -0.76638794l-3.8897705 -1.4252014l-3.2886963 -2.1364746l-2.7401733 -2.6850586l-2.026245 -3.2886963l-1.4251709 -3.7244263l-0.7113037 -4.165344l-0.055114746 -2.2991943l0.055114746 -2.2467346l0.7113037 -4.220459l1.4251709 -3.7244263l2.026245 -3.2335815l2.7401733 -2.7401733l3.2886963 -2.0813599l3.8897705 -1.4803162l4.4382935 -0.76638794l2.4094849 -0.055145264l2.1364746 0.055145264l3.6168213 0.54855347l3.0682373 0.9842529l2.8504028 1.3149414l1.4776611 0.76904297l0.60369873 0.32806396l1.2598267 0.32809448l0.6588135 0l0.8765869 -0.055114746l1.5328369 -0.76641846l1.2073364 -1.3149414l0.65618896 -1.5879211l0.055114746 -0.8215332l-0.055114746 -0.6036682l-0.27294922 -1.1496277l-0.60369873 -1.0419922l-0.8215332 -0.87661743l-0.54852295 -0.32809448l-2.0813599 -1.3149719l-4.4383545 -2.0839844l-4.7113037 -1.3700867l-4.876648 -0.7112732z" fill-rule="evenodd"/><path fill="#587189" d="m619.8819 280.27298l1.3700562 0.055114746l2.8504028 0.49343872l2.7926636 0.9317627l2.6850586 1.4776611l2.4120483 2.0289001l2.0813599 2.5747986l1.5354614 3.1784668l0.9842529 3.779541l0.22045898 2.1915894l-33.69818 0l0.16534424 -2.1915894l0.98687744 -3.779541l1.5328369 -3.1784668l2.026245 -2.5747986l2.4120483 -2.0289001l2.6299438 -1.4776611l2.795288 -0.9317627l2.8477783 -0.49343872l1.3700562 -0.055114746zm0 -8.766418l-1.7532959 0.055114746l-3.2860718 0.32809448l-3.0682373 0.65878296l-2.8504028 0.9317627l-2.574829 1.2047119l-2.3569336 1.4776917l-2.0813599 1.7532959l-1.9186401 1.9186401l-1.6430664 2.0813599l-1.4802856 2.3018188l-1.8084106 3.671936l-1.5879517 5.3700867l-0.82147217 5.643036l-0.055114746 2.8504028l0.055114746 1.8057556l0.21783447 3.3989563l0.4934082 3.1784668l0.76641846 3.0131226l0.98687744 2.7926636l1.2073364 2.6299133l1.4777222 2.356964l1.6981201 2.1915894l1.8635254 1.9186401l2.1364746 1.6981506l2.30188 1.4803162l2.574768 1.2598572l2.6850586 0.98687744l2.9580078 0.76638794l3.123352 0.49343872l3.2886963 0.27297974l1.7532959 0l3.5617065 -0.055114746l5.8635254 -0.7113037l4.656128 -1.3700562l4.0 -1.8084106l1.8635254 -1.0419922l0.6010742 -0.38320923l1.0971069 -0.87661743l0.76641846 -1.0945129l0.4934082 -1.2073364l0.055114746 -0.65615845l-0.11022949 -0.9317627l-0.65618896 -1.6430664l-1.2598267 -1.2073364l-1.6456909 -0.65615845l-0.93170166 -0.055114746l-0.49084473 0l-1.0419922 0.27294922l-0.4934082 0.2204895l-1.5879517 0.76638794l-3.343811 1.3149719l-3.671936 0.9317627l-4.328064 0.43829346l-2.4645996 0.055145264l-2.3018188 -0.055145264l-4.0551147 -0.6010437l-3.5617065 -1.1522217l-3.0131226 -1.6981506l-2.4645386 -2.1916199l-1.9737549 -2.685028l-1.4252319 -3.123352l-0.9291382 -3.4514465l-0.27557373 -1.9186401l38.68506 0l1.0944824 -0.055114746l1.9186401 -0.7113037l1.4251709 -1.4252014l0.76641846 -1.8634949l0.055114746 -1.0944824l-0.055114746 -2.8504028l-0.9317627 -5.4776917l-1.7532959 -5.097107l-1.9186401 -3.5065613l-1.4776611 -2.1365051l-1.7532959 -1.9711304l-1.9186401 -1.8083801l-2.1364746 -1.5905457l-2.3018188 -1.3700867l-2.5197144 -1.1495972l-2.7401123 -0.87664795l-2.9055176 -0.6036682l-3.123352 -0.27297974l-1.6430664 -0.055114746z" fill-rule="evenodd"/><path fill="#587189" d="m666.34644 317.75067l-1.3149414 0.11022949l-2.3018188 0.9317627l-1.6981812 1.7532654l-0.98687744 2.3018494l-0.055114746 1.3149414l0 0.65618896l0.055114746 1.3149414l0.98687744 2.3018494l1.6981812 1.7532654l2.3018188 0.9317627l1.3149414 0.11022949l1.1495972 0l1.3150024 -0.11022949l2.3018188 -0.9317627l1.6981812 -1.7532654l0.98687744 -2.3018494l0.11022949 -1.3149414l0 -0.65618896l-0.11022949 -1.3149414l-0.98687744 -2.3018494l-1.6981812 -1.7532654l-2.3018188 -0.9317627l-1.3150024 -0.11022949z" fill-rule="evenodd"/><path fill="#587189" d="m696.15485 248.6588l-1.2073364 0.10760498l-2.0813599 0.87927246l-1.5879517 1.5879211l-0.87664795 2.0813599l-0.055114746 1.2047272l0 0.43832397l0.055114746 1.2073364l0.87664795 2.0813599l1.5879517 1.5879517l2.0813599 0.87661743l1.2073364 0.055145264l0.7113037 0l1.1495972 -0.055145264l2.0839844 -0.87661743l1.5879517 -1.5879517l0.87664795 -2.0813599l0.11022949 -1.2073364l0 -0.43832397l-0.11022949 -1.2047272l-0.87664795 -2.0813599l-1.5879517 -1.5879211l-2.0839844 -0.87927246l-1.1495972 -0.10760498zm0.27294922 23.286087l-1.0971069 0.055114746l-1.8609009 0.87664795l-1.4251709 1.4252014l-0.76641846 1.9711304l-0.055114746 1.0419922l0 48.984253l0.10760498 1.0419922l0.8241577 1.8083801l1.4226074 1.3674622l1.8083496 0.7138977l1.0419922 0.11026001l1.0419922 -0.11026001l1.8057861 -0.7138977l1.4252319 -1.3674622l0.8215332 -1.8083801l0.11022949 -1.0419922l0 -48.984253l-0.055114746 -1.0419922l-0.7113037 -1.9711304l-1.4252319 -1.4252014l-1.9185791 -0.87664795l-1.0945435 -0.055114746z" fill-rule="evenodd"/><path fill="#587189" d="m745.7953 280.98688l1.6430054 0.052490234l3.343872 0.54855347l3.2335815 1.1522217l3.0682373 1.7532959l2.7375488 2.464569l2.246704 3.1784668l1.6456909 4.0l0.87664795 4.7664185l0.052490234 2.7401428l-0.052490234 2.7926636l-0.87664795 4.8241577l-1.6456909 3.9973755l-2.246704 3.2335815l-2.7375488 2.4671936l-3.0682373 1.8057861l-3.2335815 1.2073364l-3.343872 0.54855347l-1.6430054 0.052490234l-1.6430664 -0.052490234l-3.343811 -0.54855347l-3.2860718 -1.2073364l-3.0131226 -1.8057861l-2.7401733 -2.4671936l-2.246704 -3.2335815l-1.5879517 -3.9973755l-0.87664795 -4.8241577l-0.11022949 -2.7926636l0.11022949 -2.7401428l0.87664795 -4.7664185l1.5879517 -4.0l2.246704 -3.1784668l2.7401733 -2.464569l3.0131226 -1.7532959l3.2860718 -1.1522217l3.343811 -0.54855347l1.6430664 -0.052490234zm0 -9.480316l-1.6430664 0.055114746l-3.1784668 0.27297974l-3.0131226 0.54855347l-2.8504028 0.8215027l-2.6299438 1.0419922l-2.5196533 1.3149719l-2.3018188 1.5328064l-2.1364746 1.8084106l-1.9186401 1.9737549l-1.6981812 2.1915894l-1.4777222 2.4094543l-1.2073364 2.577423l-1.0393677 2.7926636l-0.76904297 2.9055176l-0.54589844 3.0682373l-0.27557373 3.2860718l0 1.6456909l0 1.6981506l0.27557373 3.230957l0.54589844 3.0682678l0.76904297 2.9606018l1.0393677 2.7401733l1.2073364 2.5747986l1.4777222 2.4094543l1.6981812 2.1915894l1.9186401 2.0288696l2.1364746 1.7532959l2.3018188 1.5328064l2.5196533 1.3149719l2.6299438 1.0971069l2.8504028 0.8215027l3.0131226 0.54855347l3.1784668 0.27297974l3.2860718 0l3.1785278 -0.27297974l3.0131226 -0.54855347l2.795227 -0.8215027l2.6850586 -1.0971069l2.5197144 -1.3149719l2.3018188 -1.5328064l2.1364746 -1.7532959l1.9186401 -2.0288696l1.6981812 -2.1915894l1.4802856 -2.4094543l1.2598267 -2.5747986l1.0393677 -2.7401733l0.76904297 -2.9606018l0.49346924 -3.0682678l0.27294922 -3.230957l0.055114746 -1.6981506l-0.055114746 -1.6456909l-0.27294922 -3.2860718l-0.49346924 -3.0682373l-0.76904297 -2.9055176l-1.0393677 -2.7926636l-1.2598267 -2.577423l-1.4802856 -2.4094543l-1.6981812 -2.1915894l-1.9186401 -1.9737549l-2.1364746 -1.8084106l-2.3018188 -1.5328064l-2.5197144 -1.3149719l-2.6850586 -1.0419922l-2.795227 -0.8215027l-3.0131226 -0.54855347l-3.1785278 -0.27297974l-1.6430054 -0.055114746z" fill-rule="evenodd"/><path fill="#587189" d="m72.83465 249.31496l0.32807922 0.11024475l0.5485611 0.82151794l0.055114746 0.6036682l0 0.43832397l-0.055114746 0.60105896l-0.49343872 0.82414246l-0.3832016 0.052490234l-19.068245 0l-0.3832016 -0.10760498l-0.49343872 -0.8215332l-0.05511856 -0.54855347l0 -0.43832397l0 -0.65878296l0.5485573 -0.7664032l0.3832016 -0.11024475zm21.750656 10.467209l0 70.73489l-62.68242 0l0 -70.73489zm-31.50394 75.50394l1.9711266 0.21783447l1.808403 0.76641846l1.5354309 1.2073364l1.1496048 1.6430359l0.6587982 2.026245l0.055114746 1.1522522l0 0.7112732l-0.275589 1.3700867l-0.5485611 1.2598267l-0.7664032 1.0971069l-0.93175507 0.9317627l-1.09449 0.76641846l-1.2598419 0.54855347l-1.370079 0.27297974l-0.71390915 0l-1.1496086 -0.055145264l-2.0288696 -0.65615845l-1.6430435 -1.1522217l-1.2047272 -1.5328064l-0.7664032 -1.8084106l-0.22047043 -1.9737549l0.32808304 -2.026245l0.98687744 -1.8635254l0.7664032 -0.8215027l0.8241463 -0.76641846l1.8608932 -0.98687744l2.0288696 -0.32806396zm-24.603672 -92.92915l-2.7926521 0.38320923l-2.412075 0.7664032l-2.629919 1.3149567l-2.4645672 2.0288696l-1.4803162 2.1364899l-0.82152176 1.7532806l-0.5485573 2.026245l-0.32808304 2.301834l0 1.2598572l0 84.87399l0 1.2598572l0.32808304 2.3018494l0.5485573 2.0288696l0.82152176 1.6981506l1.4803162 2.1915894l2.4645672 2.026245l2.629919 1.3149719l2.412075 0.7138977l2.7926521 0.43832397l0.43832016 0l48.7664 -0.055114746l0.43832397 0l2.740158 -0.43832397l2.464569 -0.7138977l2.5747986 -1.3149719l2.4671936 -2.0813599l1.5328064 -2.1364746l0.7690277 -1.6981812l0.5459366 -2.0288696l0.33070374 -2.3018188l0.055122375 -1.3149719l0 -84.76376l-0.055122375 -1.2598572l-0.33070374 -2.301834l-0.5459366 -2.026245l-0.7690277 -1.7532806l-1.5328064 -2.1364899l-2.4671936 -2.0288696l-2.5747986 -1.3149567l-2.464569 -0.7664032l-2.740158 -0.38320923z" fill-rule="evenodd"/><path fill="#587189" d="m49.656166 300.87665l0.05511856 1.2047119l0.5485573 2.4094543l1.0393715 2.1915894l1.4251976 1.9186401l1.863514 1.6430359l2.1916008 1.3149719l2.464569 0.9317627l2.6325455 0.49343872l1.4225731 0.055114746l1.3700752 -0.055114746l2.6850433 -0.49343872l2.4671936 -0.9317627l2.1364822 -1.3149719l1.8608932 -1.6430359l1.4803085 -1.9186401l1.0419998 -2.1915894l0.54855347 -2.4094543l0.052497864 -1.2047119z" fill-rule="evenodd"/><path fill="#587189" d="m42.149605 282.30185l-1.2047234 0.052490234l-2.1364822 0.9317627l-1.5905533 1.5905457l-0.8766403 2.0813599l-0.107608795 1.2047119l0.107608795 1.207367l0.8766403 2.1364746l1.5905533 1.5879211l2.1364822 0.87664795l1.2047234 0.11022949l1.1522331 -0.11022949l2.1364822 -0.87664795l1.587925 -1.5879211l0.8766403 -2.1364746l0.11023712 -1.207367l-0.11023712 -1.2047119l-0.8766403 -2.0813599l-1.587925 -1.5905457l-2.1364822 -0.9317627l-1.1522331 -0.052490234z" fill-rule="evenodd"/><path fill="#ffffff" d="m44.889763 286.2467l-0.43832016 0.055145264l-0.6587906 0.27294922l-0.54593277 0.54855347l-0.275589 0.65618896l0 0.3831787l0 0.38320923l0.275589 0.7139282l0.54593277 0.49343872l0.6587906 0.32806396l0.82152176 0l0.6587944 -0.32806396l0.54593277 -0.49343872l0.275589 -0.7139282l0 -0.38320923l0 -0.3831787l-0.275589 -0.65618896l-0.54593277 -0.54855347l-0.6587944 -0.27294922l-0.3832016 -0.055145264z" fill-rule="evenodd"/><path fill="#587189" d="m84.396324 282.30185l-1.207344 0.052490234l-2.1364899 0.9317627l-1.5879211 1.5905457l-0.8766403 2.0813599l-0.11023712 1.2047119l0.11023712 1.207367l0.8766403 2.1364746l1.5879211 1.5879211l2.1364899 0.87664795l1.207344 0.11022949l1.2047272 -0.11022949l2.0813599 -0.87664795l1.5879288 -1.5879211l0.9317627 -2.1364746l0.055114746 -1.207367l-0.055114746 -1.2047119l-0.9317627 -2.0813599l-1.5879288 -1.5905457l-2.0813599 -0.9317627l-1.2047272 -0.052490234z" fill-rule="evenodd"/><path fill="#ffffff" d="m87.13386 286.2467l-0.3832016 0.055145264l-0.71128845 0.27294922l-0.49343872 0.54855347l-0.32807922 0.65618896l0 0.3831787l0 0.38320923l0.32807922 0.7139282l0.49343872 0.49343872l0.71128845 0.32806396l0.7664032 0l0.6587906 -0.32806396l0.5485611 -0.49343872l0.27296448 -0.7139282l0.055114746 -0.38320923l-0.055114746 -0.3831787l-0.27296448 -0.65618896l-0.5485611 -0.54855347l-0.6587906 -0.27294922l-0.3832016 -0.055145264z" fill-rule="evenodd"/></g></svg>