<svg xmlns="http://www.w3.org/2000/svg" width="800" height="800" viewBox="-10.45 0 81.733 81.733">
  <g data-name="ping pong racket">
    <g data-name="Group 38">
      <path fill="#f44b41" d="M60.837 30.724A30.419 30.419 0 1 0 9.929 53.386h40.977a30.757 30.757 0 0 0 9.931-22.662Z" data-name="Path 114"/>
      <path fill="#e4c2a4" d="M50.907 53.386H9.929c5.407 4.989 12.588 12.621 20.487 12.621s15.077-7.632 20.491-12.621Z" data-name="Path 115"/>
      <g data-name="Group 37">
        <path fill="#f2caad" d="M24.843 79.301a2.438 2.438 0 0 0 2.432 2.432h6.285a2.445 2.445 0 0 0 2.436-2.432V55.778a2.442 2.442 0 0 0-2.436-2.43h-6.285a2.436 2.436 0 0 0-2.432 2.43Z" data-name="Path 116"/>
      </g>
      <path fill="#c6a389" d="M20.447 62.408a24.6 24.6 0 0 0 4.4 2.4v-9.031a2.323 2.323 0 0 1 .167-.84c-.03-.008-.07-.013-.07-.023Zm19.611.221-4.443-8.217c0 .011-.047.028-.07.041a2.387 2.387 0 0 1 .451 1.325v9.031a24.487 24.487 0 0 0 4.062-2.18Z" data-name="Path 117"/>
    </g>
    <path fill="#fff" d="M51.737 24.488a10.138 10.138 0 1 1-10.141-10.139 10.139 10.139 0 0 1 10.141 10.139Z" data-name="Path 118"/>
    <path fill="#d72d34" d="M41.596 34.626a10.1 10.1 0 0 1-7.473-16.939 10.078 10.078 0 0 0-4.947 8.628 10.284 10.284 0 0 0 18.037 6.61 10.109 10.109 0 0 1-5.617 1.701Z" data-name="Path 119"/>
  </g>
</svg>
