<svg version="1.1" viewBox="0.0 0.0 800.0 600.0" fill="none" stroke="none" stroke-linecap="square" stroke-miterlimit="10" xmlns:xlink="http://www.w3.org/1999/xlink" xmlns="http://www.w3.org/2000/svg"><clipPath id="p.0"><path d="m0 0l800.0 0l0 600.0l-800.0 0l0 -600.0z" clip-rule="nonzero"/></clipPath><g clip-path="url(#p.0)"><path fill="#000000" fill-opacity="0.0" d="m0 0l800.0 0l0 600.0l-800.0 0z" fill-rule="evenodd"/><path fill="#343434" d="m82.908134 184.53543l-1.3963242 0.6955414l-1.3963242 2.7926483l-0.6981659 2.7900238l1.3963318 9.766403l0 6.9763794l-1.3963318 8.372711l-4.8818893 17.440933l-6.9763794 25.118118l-18.141727 61.393707l-16.742783 57.20996l-5.582678 20.230988l-1.3937016 6.9763794l-0.6981621 4.1863403l0 6.2808533l1.3963261 4.8818665l1.3936996 4.186371l2.0944881 3.4881897l4.8818893 5.582672l4.186352 4.1863403l2.09449 2.091858l1.3936996 0.69818115l2.09449 0.69815063l2.0918617 0l1.3963242 -0.69815063l1.3937035 -1.3963318l1.3963242 -2.091858l0.6981621 -2.790039l2.7900276 -17.443573l5.582676 -24.417328l6.2782135 -27.908112l6.9763794 -27.207367l0.6981659 1.3937073l9.766403 18.1391l9.070862 15.349091l11.860893 16.745422l6.278221 8.372681l6.2782135 7.671936l7.6745377 7.67453l6.979004 6.2808533l8.370071 5.5800476l7.6745453 4.1863403l8.372711 2.790039l4.1863403 0.69815063l4.1863556 0.69815063l6.2782135 -0.69815063l5.5826874 -0.69815063l4.8818817 -2.0918884l3.4881897 -2.091858l3.4881897 -2.792633l2.0944824 -3.4881897l1.3963318 -3.4881897l0 -4.186371l-0.6981659 -5.5800476l-1.3963165 -3.4881897l-2.790039 -3.4881897l-3.4881897 -2.0944824l-2.7900238 -0.69815063l-2.7926483 -0.69555664l-2.091858 -0.69815063l-2.7900238 5.5800476l-1.3963318 2.0944824l-1.3963318 0.69555664l-2.091858 1.3963013l-2.0944824 0.69818115l-11.162735 0l-4.8818817 -1.3963318l-5.5826874 -2.091858l-4.884506 -3.4881897l-4.183731 -2.790039l-4.8845215 -4.1863403l-8.372696 -9.070862l-6.9763794 -9.068237l-6.2782135 -9.769043l-9.769028 -15.349091l-1.3937073 -4.1863403l0 -1.3937073l0.6955414 -1.3963318l2.09449 -2.091858l2.7900238 -2.792633l9.070869 -8.370087l9.068237 -9.769043l8.372711 -11.16272l6.9763794 -11.16272l6.280838 -11.16275l4.8818817 -11.16272l2.7926483 -11.16272l1.3937073 -4.881897l0 -4.8845215l-0.6981659 -5.582672l-0.6955414 -4.8818817l-1.3963165 -4.8845215l-2.7900238 -3.4881897l-2.7926636 -3.4881897l-3.4881897 -2.091858l-3.4881744 -1.3963318l-4.1863556 -0.6981659l-9.766411 0.6981659l-2.091858 0l-1.3963318 1.3963318l0 0.6955414l0.6981659 2.0944824l2.0918655 4.8818817l2.09449 10.467194l0.69553375 7.6745453l-0.69553375 4.183716l-0.6981659 4.8845215l-1.3963242 4.186371l-2.0918655 4.884491l-4.884514 9.068237l-6.2782135 9.070892l-7.6745453 9.068237l-7.6745377 8.372681l-7.6745377 6.9763794l-7.6745453 6.9763794l2.0918655 -6.2781982l2.09449 -4.8845215l9.766403 -23.719147l10.464569 -28.606323l4.884514 -14.650909l4.186348 -13.952759l2.0918655 -12.556427l1.3963242 -11.162735l-0.6981659 -4.884506l-2.091858 -3.4881897l-2.792656 -2.7900238l-3.4881897 -2.0944977l-16.742783 -8.372696l-2.7900238 -0.6955414z" fill-rule="evenodd"/><path fill="#343434" d="m179.18636 222.20735l-1.3963318 0.6981659l-1.393692 1.3963165l-2.0944977 4.1863556l-2.091858 5.5800476l-4.1863556 11.860901l-1.3963165 4.1863403l-0.6981659 3.4881897l1.3963165 2.790039l2.0918732 2.0944824l4.1863403 2.091858l7.6745453 2.790039l2.0944824 0.69815063l1.3937073 -0.69815063l1.3963318 -1.3937073l0.69815063 -1.3963318l3.4881897 -9.068237l1.3963318 -7.6745453l0 -5.582672l-0.6981659 -4.8845215l-1.3963165 -3.4881744l-2.0918732 -2.790039l-2.0944824 -2.7900238l-1.3937073 -1.3963165l-2.7926483 -0.6981659z" fill-rule="evenodd"/><path fill="#343434" d="m255.2336 258.4882l-1.3963318 0.6955261l0 2.094513l1.3963318 5.5800476l2.0918732 4.1863403l2.7900085 4.1863403l3.4881897 4.8845215l5.582672 4.8845215l-6.2781982 17.440948l-8.372711 20.230957l-4.1863556 9.769043l-4.1863403 8.372711l-4.1863556 7.6719055l-4.1863556 4.8845215l0 -7.6745605l1.3963318 -8.372681l2.091858 -9.766418l2.0944824 -9.068237l5.580063 -16.047241l3.4881897 -9.769043l0.6981659 -4.183716l0.69815063 -3.4881897l0 -1.3963318l-0.69815063 -1.3963318l-1.3937073 -1.3936768l-2.0944824 -0.69818115l-11.162735 -4.8845215l-0.6981659 0l-1.393692 -0.69815063l-2.0944977 0.69815063l-0.6981659 1.3963318l-0.6955261 1.3937073l-9.070877 26.51181l-4.1863403 16.047241l-3.4881897 15.349091l-10.464569 13.254578l-1.3963318 1.3963318l-2.091858 0l-1.3963318 -0.69815063l-0.6981659 -0.69818115l-0.69815063 -1.3936768l0 -2.094513l0.69815063 -3.4881897l2.0944977 -6.2781982l6.2782135 -17.440948l11.162735 -30.0l0.69815063 -2.7926636l0 -2.091858l-0.69815063 -2.0944824l-0.6981659 -0.6955261l-1.3937073 -1.3963318l-1.3963165 -0.69818115l-11.860901 -4.8818665l-2.091858 -0.69818115l-2.0944977 0l-2.091858 0.69818115l-2.0944824 1.3936768l0 0.69818115l-16.044617 30.69815l-12.559067 23.719177l-9.070862 17.443573l-0.6955414 1.3936768l-1.3963165 0.69818115l-2.0918732 0.69815063l-1.3963165 -0.69815063l-0.6981659 -0.69818115l0 -1.3936768l0 -2.094513l11.162735 -28.603668l12.5590515 -28.603668l1.393692 -3.4881897l0.6981659 -3.4908142l-0.6981659 -2.790039l-1.393692 -1.3936768l-5.5826874 -2.7926636l-5.5800476 -1.3937073l-2.0944824 -0.69815063l-2.0918732 0l-1.3963165 0.69815063l-1.3937073 0.69818115l-1.3963165 2.091858l-1.3963318 2.7900085l-13.254593 32.79004l-9.766403 25.118103l-3.4908142 9.766418l-1.3936996 6.9763794l0 4.1863403l0.69815826 4.1863403l2.0918732 2.790039l2.0944824 2.790039l2.7900238 2.792633l3.4881897 1.3937073l3.4881897 1.3963318l2.7900238 1.3963318l5.5826874 0l2.091858 -0.69818115l2.0944824 -1.3963318l2.0918732 -2.091858l1.3963165 -0.69815063l7.6745453 -13.952759l16.044617 -29.304474l-7.6745453 25.816284l-0.6955261 3.4881897l0 3.4881897l0.6955261 2.7900085l2.0944977 2.790039l2.091858 2.790039l2.7926483 2.0944824l3.4881897 2.7900085l4.183731 1.3963318l3.4908142 1.3937073l3.4881897 -0.6955261l2.7900238 -2.094513l2.7900238 -2.7900085l6.2782135 -9.070862l9.070877 -13.254608l0 4.186371l1.3963165 3.4881897l1.3937073 3.4881897l1.3963165 3.4881592l4.1863556 4.8845215l5.5800476 4.1837463l3.4881897 2.0944824l4.1863556 1.3963318l2.7926483 0.6955261l3.4881897 -0.6955261l2.7900238 -1.3963318l2.0918732 -1.3963318l2.7926483 -2.790039l2.091858 -2.7900085l6.9763947 -11.16272l10.464569 -18.13913l4.884491 -11.16272l5.582672 -11.860901l4.881897 -12.5590515l3.4881897 -11.860901l0.69818115 -3.4881897l0 -2.091858l-0.69818115 -2.7900085l-3.4881897 -2.7926636l-12.556427 -10.464569l-6.979004 -4.1863403l-5.5800476 -2.790039l-3.4881897 -1.3963318l-2.7900238 -0.6955261z" fill-rule="evenodd"/><path fill="#343434" d="m326.39633 225.0l-2.7926636 1.3937073l-2.091858 1.3963165l-2.0944824 3.4881897l-2.790039 4.8845215l-4.1863403 10.464569l-1.3937073 2.7900238l0 2.0944824l0 2.7900238l1.3937073 3.488205l1.3963318 2.091858l2.091858 2.0944824l4.8845215 4.1863403l6.2781982 3.4881897l1.3963318 0.69555664l1.3963318 0l1.3937073 -0.69555664l1.3963013 -2.0944824l2.790039 -7.67453l2.0944824 -6.9763794l0.69555664 -5.580063l0 -5.582672l-1.3937073 -4.8845215l-0.69818115 -3.4881897l-2.091858 -3.4881744l-1.3963318 -2.0918732l-2.091858 -1.3963165l-1.3963318 -0.6981659l-1.3963013 -0.6955414z" fill-rule="evenodd"/><path fill="#343434" d="m404.53543 252.90552l1.3937073 0.69815063l0.69815063 0.6981659l0 1.3937073l0.69818115 5.5826874l-2.790039 9.068237l-3.4881897 11.16272l-5.582672 11.860901l-6.2782288 13.257202l-6.2781982 12.556427l-6.979004 11.860901l-6.9763794 9.070862l-6.2782288 6.9763794l-3.4881897 3.4881897l-2.7900085 2.091858l-2.0944824 0l-2.0918884 -0.6955261l-1.3963013 -0.69815063l-0.69818115 -2.094513l-1.3937073 -5.5800476l0.69555664 -7.67453l0.69815063 -4.186371l1.3963318 -4.1863403l0 -0.69815063l6.9763794 -17.440948l6.2782288 -11.16272l6.2808228 -10.464569l6.9763794 -9.070892l6.2782288 -7.67453l10.464569 -10.464569l5.582672 -5.5800476l2.7900085 -1.3963318l1.3963318 -0.69815063zm-39.769012 -31.393707l-1.3937073 0.6955414l-0.69818115 2.0944824l0 2.7900238l0 1.3963318l0 2.7900238l-0.69815063 3.4881897l-2.091858 6.2782135l-13.955383 36.280853l-1.3937073 0.6955261l-16.047241 29.304474l-13.254608 23.719147l-8.372681 16.745422l-1.3963318 1.3936768l-0.69815063 0.69818115l-2.790039 0.69815063l-0.69815063 -0.69815063l-0.69555664 -0.69818115l-0.69815063 -1.3936768l0 -1.3963318l4.1863403 -10.464569l7.67453 -18.83728l11.858276 -28.603668l1.3963318 -3.4881897l0 -2.7926636l-0.69815063 -2.091858l-2.0918884 -1.3963318l-4.1863403 -2.091858l-4.8845215 -2.0944824l-4.1863403 -0.6955261l-1.3937073 0l-1.3963318 0.6955261l-2.091858 2.7926636l-2.0944824 4.183716l-13.254608 31.396332l-9.070862 24.417328l-2.7900085 9.070862l-2.0944824 6.9763794l0 4.1863403l1.3963013 4.1863403l1.3963318 2.790039l2.790039 2.790039l2.7900085 2.792633l3.4881897 1.3937073l2.790039 1.3963318l3.4908142 1.3963318l5.5800476 0l2.0944824 -0.69818115l2.091858 -1.3963318l2.0918884 -2.091858l0.69815063 -0.69815063l14.650909 -26.51181l-12.556427 34.18634l-7.67453 22.32547l-2.7926636 9.068237l-0.6955261 6.9763794l-0.69818115 6.2808228l1.3937073 5.580078l1.3963318 4.1863403l2.790039 3.4881897l3.4881897 3.4881897l4.884491 2.7926636l3.4881897 2.091858l3.4881897 0.69815063l2.0944824 0l2.0918884 -2.0944824l0.69815063 -2.091858l1.3963318 -4.186371l1.3937073 -10.464569l2.0944824 -14.650909l3.4881897 -15.349091l4.1863403 -16.047241l4.881897 -16.044617l3.4881897 3.4881897l4.8845215 2.790039l4.884491 2.091858l5.580078 2.0944824l4.884491 0.69818115l4.8845215 0l4.881897 -1.3963318l2.0944824 -0.69818115l1.3937073 -1.3963013l2.792633 -3.4881897l3.4881897 -4.1837463l9.068268 -12.5590515l9.769012 -16.047241l9.766418 -18.1391l9.769012 -18.83728l7.671936 -17.440948l3.4907837 -8.372711l2.0918884 -7.67453l1.3963013 -6.2781982l0.69555664 -5.5826874l-0.69555664 -4.881897l-2.0944824 -4.1863403l-3.4881897 -3.4881897l-4.1863403 -3.4881897l-4.1863403 -2.0944977l-4.881897 -1.393692l-4.186371 -0.6981659l-4.1863403 -0.6981659l-2.0944824 0.6981659l-2.790039 0.6981659l-4.884491 2.091858l-5.580078 4.1863556l-4.884491 4.1863556l1.3963013 -4.1863556l0 -3.4881897l-1.3963013 -2.7900238l-1.3937073 -1.3963318l-4.186371 -2.7900238l-5.582672 -2.0944824l-6.2781982 -2.0918732l-3.4881897 -2.0944824l-2.0944824 -0.6955414z" fill-rule="evenodd"/><path fill="#343434" d="m525.92914 255.0l0.69818115 0.6955414l0 1.3963165l0 1.3963318l-0.69818115 2.790039l-1.3936768 2.091858l-1.3963623 2.792633l-1.3936768 -1.3963013l-1.3963623 -1.3963318l-0.6981201 -1.3937073l0 -1.3963318l0.6981201 -2.7900085l0.69818115 -1.3963318l2.091858 -0.6981659l1.3963623 -0.6955414zm-64.8819 36.97638l4.1863403 0.6955261l2.790039 2.094513l2.091858 2.091858l0.69818115 1.3963318l-9.766418 23.721771l-6.2808228 10.464569l-6.9763794 10.464569l-3.4881897 4.8845215l-3.4881897 3.4881897l-2.790039 2.7900085l-3.4881897 0.69818115l-1.3963318 -0.69818115l-1.3937073 -2.091858l-0.69815063 -2.7926636l0 -2.7900085l0.69815063 -6.2782288l2.0918884 -7.67453l3.4881897 -9.070862l4.1863403 -9.068237l4.8845215 -8.372711l4.881897 -7.67453l2.792633 -2.0918884l2.091858 -2.0944824l2.790039 -1.3963318l2.0944824 -0.6955261zm115.81366 107.44095l8.372681 0.69815063l7.6745605 1.3937073l8.370056 2.790039l7.6745605 2.792633l-2.091858 3.4881897l-1.3963623 3.4881897l-2.091858 4.8845215l-3.4881592 4.183716l-3.4882202 4.186371l-4.8844604 2.792633l-4.8845215 2.790039l-4.881897 2.091858l-4.8845215 1.3963318l-11.860901 0l-5.5827026 -1.3963318l-4.183716 -2.091858l-3.4881592 -2.0944824l-2.0944824 -2.790039l-1.3963623 -2.091858l-1.3936768 -2.7926636l0 -2.091858l0 -2.7900085l1.3936768 -3.4881897l1.3963623 -3.4881897l2.789978 -3.4881897l3.4882202 -3.4908142l5.5827026 -2.790039l6.9763184 -1.3937073l8.372742 -0.69815063zm25.115479 -172.32547l-2.091858 0.6981659l-2.0944824 0.6981659l-0.69818115 1.3937073l-7.6745605 15.349075l-9.766357 0l-7.6745605 0.6981659l-2.790039 0.6981659l-2.0944824 1.393692l-1.3936768 1.3963318l-1.3963623 2.0944824l-2.789978 5.5800476l0 2.091858l0 2.094513l1.3963013 1.3963013l1.3936768 0.69555664l5.5827026 1.3963318l10.464539 0l-16.047241 35.580048l-6.9763794 17.443573l-6.2781982 15.34906l-4.1863403 7.6745605l-4.1863403 6.2781982l-3.4882202 4.8845215l-1.3963013 0.6955261l-1.3937378 0.69818115l-1.3963013 -0.69818115l-0.69818115 -1.3936768l0 -2.094513l0.69818115 -3.4881897l2.091858 -7.67453l3.4908447 -9.068237l8.370056 -18.83728l6.2808228 -13.257202l2.091858 -7.6745605l0.69818115 -2.7900085l0 -2.091858l-0.69818115 -2.094513l-1.3963013 -1.3936768l-1.3936768 -1.3963318l-2.0945435 -1.3963318l-18.83722 -7.67453l4.1863403 -9.766418l0.6981201 -4.1863403l0.69818115 -2.790039l-0.69818115 -2.7900238l-0.6981201 -2.7926483l-1.3937378 -2.091858l-2.0944824 -2.0918732l-2.091858 -1.3963165l-2.0944824 -0.6981659l-6.2781982 -0.6981659l-5.5827026 0l-5.580017 1.3963318l-4.186371 1.3963165l-4.1863403 2.0918732l-3.4881897 2.7900238l-2.0918884 2.7926483l-2.0944824 3.4881897l0 4.183716l0 3.4908142l1.3963318 3.4881897l2.091858 3.4881897l2.0944824 3.4881897l2.790039 2.790039l3.4881897 2.7900085l6.976349 4.186371l-27.20993 56.51181l-3.4881897 6.9763794l-3.4881897 4.1863403l-1.3937073 1.3963318l-1.3963318 0.6955261l-2.091858 0l-1.3963318 -1.3936768l-0.69815063 -1.3963318l0 -1.3963318l0.69815063 -4.183716l2.790039 -6.979004l7.67453 -18.834656l13.952759 -32.792664l0.69815063 -1.3936768l0 -1.3963318l-1.3937073 -2.091858l-2.0944824 -0.69818115l-1.3937073 -0.69815063l-9.070862 -4.186371l-2.091858 -0.69815063l-1.3963318 0l-1.3963013 1.3963318l-1.3937073 2.7900085l-3.4881897 8.372711l-4.186371 -4.1863403l-4.884491 -4.186371l-2.790039 -1.3936768l-3.4881897 -1.3963318l-2.792633 -1.3963318l-7.671936 0l-3.4908142 1.3963318l-3.4881897 2.7900085l-4.1863403 3.4881897l-3.4881897 4.186371l-3.4881897 4.8845215l-6.9763794 11.16272l-6.2782288 13.254578l-4.884491 13.257233l-2.790039 12.556427l-1.3963318 6.2808533l0 5.5800476l0.69818115 4.1863403l1.3963013 4.1863403l2.0918884 4.186371l2.0944824 3.4881897l3.4881897 2.7900085l2.7900085 2.094513l3.4881897 1.3936768l3.4881897 0.69818115l2.0944824 -0.69818115l2.790039 -1.3936768l2.790039 -1.3963318l2.7900085 -2.790039l5.582672 -6.2808228l5.580078 -7.6745605l0.69815063 2.7926636l2.0944824 3.4881897l2.790039 3.4881897l2.7900085 3.4881897l3.4881897 2.7900085l3.4881897 2.094513l3.4881897 2.091858l5.582672 0l1.3937073 -0.69818115l3.4908142 -2.7900085l3.4881897 -3.4881897l3.4881897 -4.8845215l6.2782288 -10.464569l4.1863403 -8.372711l11.16272 -21.627289l17.440979 -35.580048l7.6744995 2.790039l-4.1863403 7.67453l-7.6745605 18.83728l-4.881836 11.16272l-3.4882202 10.464569l-2.792633 8.372711l-0.69555664 6.9763794l0 3.4881897l2.0918884 3.4881592l2.091858 3.4881897l2.7926636 3.4881897l3.4881592 2.790039l2.790039 2.0944824l3.4881592 1.3937073l2.790039 0.69815063l2.0944824 -0.69815063l1.3937378 -0.6955261l4.1863403 -3.4908142l4.8845215 -5.580078l4.8845215 -6.2781982l3.4881592 5.5800476l4.881897 4.8845215l4.8845215 4.1863403l2.0944824 1.3937073l2.091858 0.69815063l2.790039 -0.69815063l2.7926636 -0.6955261l2.091858 -1.3963318l2.789978 -2.790039l5.5827026 -6.2808228l5.580078 -9.766418l0 1.3963318l0.6981201 2.091858l1.3963623 2.790039l6.2781982 6.9763794l3.4881592 2.792633l3.4882202 2.790039l3.4881592 2.091858l2.790039 0.69815063l2.7926636 0l2.091858 -0.69815063l2.790039 -1.3937073l2.0944824 -2.0944824l5.580078 -6.9763794l7.6744995 -12.556427l-18.1391 45.346466l-7.6745605 -3.4881897l-8.372681 -2.0918884l-9.766418 -2.0944824l-10.464539 -0.6955261l-6.2781982 0l-5.5827026 0.6955261l-4.8845215 1.3963318l-4.1863403 1.3963318l-4.183716 2.091858l-3.4908447 2.0944824l-2.790039 2.091858l-2.789978 2.790039l-3.4882202 4.8845215l-2.790039 6.2781982l-1.3963013 5.5827026l0 4.8818665l0.69818115 5.582672l1.3936768 5.580078l3.4908447 4.884491l3.4881592 4.8845215l5.580078 4.186371l6.2781982 3.4881592l6.979004 2.0918884l8.370056 0.69815063l10.467224 -0.69815063l9.766418 -2.790039l8.372681 -2.7900085l6.9763794 -4.186371l5.580017 -4.8845215l4.8845215 -5.5800476l4.1864014 -5.582672l2.789978 -6.2782288l2.790039 -5.582672l10.467224 4.8845215l10.464539 4.8845215l10.464539 2.7900085l5.5827026 0.69818115l4.881897 0.69815063l6.2808228 -0.69815063l4.881897 -0.69818115l4.1863403 -2.091858l4.1863403 -2.0944824l2.790039 -2.790039l2.0944824 -2.7900085l0.69818115 -3.4908142l0.69555664 -4.183716l-0.69555664 -4.8845215l-1.3963013 -3.4881897l-1.3963623 -2.790039l-2.790039 -2.792633l-2.789978 -1.3937073l-2.790039 -1.3963318l-2.7926636 -0.69815063l-3.4881592 0l0 2.792633l-0.69818115 2.091858l-1.3936768 2.790039l-2.0945435 2.0944824l-2.789978 2.091858l-3.4882202 2.094513l-4.1863403 0.6955261l-5.580078 0.69815063l-7.6744995 -0.69815063l-6.280884 -0.6955261l-6.2781982 -1.3963318l-5.580017 -2.0944824l28.603638 -71.160126l12.559082 -32.094482l3.4881592 -10.464569l1.3937378 -4.8845215l0 -1.3936768l-0.69818115 -1.3963318l-2.091858 -2.790039l-3.4882202 -2.0944824l-3.4881592 -1.3937073l-3.4882202 -0.69815063l-3.4881592 0l-2.7926636 0.69815063l-1.3936768 0.69818115l-6.280884 13.952759l-12.5563965 26.51181l-6.9763794 13.254578l-6.9763794 11.860901l-3.4908447 4.8845215l-3.4881592 3.4881897l-2.790039 2.091858l-2.790039 0.69815063l-1.3963013 0l-0.69818115 -0.69815063l-0.6954956 -2.091858l0 -3.4881897l0.6954956 -4.186371l3.4908447 -11.16272l5.580017 -13.257233l12.559082 -25.115479l4.1863403 -9.068237l1.3936768 -4.8845215l-0.6981201 -2.0944824l-2.091858 -1.3937073l-2.790039 -2.0944824l-3.4882202 -1.3937073l-5.5826416 -1.3963318l-2.790039 -0.69815063l-2.790039 3.4881897l-5.5826416 11.16272l-11.162781 26.51181l-3.4881592 6.2808533l-6.9763794 13.952759l-4.1863403 7.67453l-4.1863403 6.2782288l-4.1864014 4.8845215l-1.3936768 0.69815063l-2.0944824 0.6955261l-1.3936768 -0.6955261l-0.69818115 -2.0944824l0.69818115 -2.790039l0.6954956 -3.4881897l2.7926636 -10.464569l5.580078 -12.5590515l12.559021 -28.603668l13.952759 -27.20996l35.582703 -0.69818115l30.695496 0.69818115l2.7926636 -0.69818115l2.091858 -0.69815063l2.091858 -0.69555664l1.3963623 -1.3963013l2.0944824 -3.4881897l1.3936768 -4.8845215l0.69818115 -3.4881897l0 -1.3963318l-0.69818115 -0.6955414l-1.3936768 -1.3963165l-2.0944824 -0.6981659l-64.88452 0l1.3963013 -2.7900238l0.69818115 -1.3963318l0.69818115 -2.7900238l0 -1.3963318l-0.69818115 -2.091858l-0.69818115 -1.3963318l-2.091858 -2.091858l-4.8845215 -2.091858l-5.5826416 -2.0944977z" fill-rule="evenodd"/><path fill="#343434" d="m648.0236 181.04462l-2.0944824 0.6981659l-1.3936768 1.3963318l-1.3963623 2.091858l-0.69818115 1.3963318l0 5.5800476l0.69818115 4.884506l1.3963623 4.8845215l2.091858 4.1863556l2.0944824 2.091858l2.091858 -1.3937073l3.4881592 -2.7926483l3.4882202 -4.1863403l2.7926636 -4.183731l0.6954956 -2.7926483l0.69818115 -2.0918732l0 -2.0944824l0 -2.091858l-1.3936768 -1.3963318l-2.0945435 -2.091858l-2.091858 -1.3963318l-3.4881592 -0.6981659z" fill-rule="evenodd"/><path fill="#a5bb27" d="m652.90814 181.04462l3.4881592 0.6981659l2.091858 1.3963318l2.0945435 2.091858l1.3936768 1.3963318l0 2.091858l0 2.0944824l-0.69818115 2.0918732l-0.6954956 2.7926483l-2.7926636 4.183731l-3.4882202 4.1863403l-3.4881592 2.7926483l-2.091858 1.3937073l-2.0944824 -2.091858l-2.091858 -4.1863556l-1.3963623 -4.8845215l-0.69818115 -4.884506l0 -5.5800476l0.69818115 -2.0918732l1.3963623 -1.3963165l1.3936768 -1.3963318l2.0944824 -0.6981659zm-6.979004 -35.580048l-2.790039 0.6981659l-2.790039 0.69815063l-2.789978 1.3937073l-2.7926636 2.0944824l-2.091858 2.0918732l-2.790039 4.884506l-1.3963623 5.580063l-1.3963013 6.9763794l0.69818115 7.67453l0.6981201 6.979004l1.3963623 7.671921l2.091858 6.979004l2.790039 7.67453l2.0944824 6.2782288l2.790039 4.884506l2.789978 4.183731l2.7926636 2.0944824l3.4882202 -1.3963165l4.1863403 -2.0918732l4.183716 -3.4881897l4.8845215 -4.884506l4.8845215 -5.580063l4.8845215 -6.280838l4.183716 -6.2782135l3.4881592 -5.582672l2.7926636 -6.9763794l2.091858 -6.9763794l0 -5.5800476l-1.3936768 -5.5826874l-1.3963013 -3.4881897l-2.0945435 -2.7900238l-2.091858 -2.0944824l-2.789978 -2.7900238l-3.4882202 -1.3937073l-4.1863403 -2.0944824l-9.070862 -2.7900238l-7.6745605 -0.6981659z" fill-rule="evenodd"/><path fill="#343434" d="m708.7218 205.46457l-3.4882202 2.091858l-2.0944824 1.3963318l-1.3936768 2.7900238l-2.0944824 4.1863556l-2.091858 5.582672l-0.69818115 4.183731l0 2.7926483l2.790039 0.6981659l4.8845215 -0.6981659l4.8844604 -1.3963318l4.881897 -1.3963165l2.0944824 -1.3937073l2.091858 -2.0944824l1.3963623 -1.3937073l0.69818115 -2.0944824l0.6954956 -2.091858l-0.6954956 -2.0944977l-1.3963623 -2.7900238l-2.0944824 -2.7900238l-2.091858 -1.3963318l-2.091858 -1.393692l-2.0944824 -0.6981659z" fill-rule="evenodd"/><path fill="#a5bb27" d="m710.81366 205.46457l2.0944824 0.6981659l2.790039 1.393692l2.091858 1.3963318l2.0944824 2.7900238l1.3936768 2.7900238l0 2.0944977l0 2.7900238l-0.6954956 1.3963165l-1.3963623 2.0918732l-4.8845215 2.7900238l-4.1863403 1.3963165l-5.580017 1.3963318l-4.1864014 0.6981659l-2.789978 -0.6981659l-0.69818115 -2.7926483l1.3936768 -4.183731l1.3963623 -5.582672l2.0944824 -4.1863556l3.4881592 -4.1863556l2.091858 -1.393692l1.3963623 -0.6981659zm10.464539 -32.091873l-3.4881592 0.6955414l-4.881897 2.0944977l-4.8845215 3.4881897l-4.8845215 4.884506l-4.1863403 6.2782135l-4.1863403 6.2782135l-2.790039 6.9763794l-2.790039 6.9763794l-2.0944824 7.6745453l-1.3936768 6.280838l-1.3963623 5.5800476l0 4.8845215l0.69818115 4.1863556l3.4881592 0.69815063l10.4646 0l6.9763794 -0.69815063l7.6745605 -2.0944977l7.6744995 -1.393692l6.280884 -2.7926636l6.2781982 -2.7900238l6.9763794 -3.4881897l5.5826416 -4.884506l3.4882202 -4.881897l2.091858 -4.884506l0.69818115 -3.4881897l0.6981201 -2.7900238l-0.6981201 -3.4881897l-1.3963623 -3.4881897l-1.3936768 -3.4881897l-2.0944824 -4.1863556l-5.580078 -7.6745453l-6.2808228 -5.582672l-2.790039 -2.091858l-2.790039 -1.3963318l-3.4881592 -0.6981659l-2.790039 -0.6955414z" fill-rule="evenodd"/><path fill="#343434" d="m731.04724 265.46457l-4.8845215 0.69815063l-4.1863403 2.790039l-4.8845215 2.7900085l-2.790039 2.790039l-1.3936768 2.7926636l2.091858 2.091858l3.4881592 2.091858l4.8845215 2.0944824l4.881897 0.69818115l5.5827026 0l2.091858 -0.69818115l1.3963013 -0.69815063l1.3963623 -1.3963318l1.3936768 -2.091858l0 -2.790039l0 -3.4881897l-0.69555664 -2.792633l-0.6981201 -2.091858l-1.3963623 -1.3963318l-2.091858 -1.3937073z" fill-rule="evenodd"/><path fill="#a5bb27" d="m733.1391 265.46457l2.0944824 0.69815063l2.091858 0.69555664l1.3963623 2.0944824l0.6981201 2.091858l0.69555664 2.7926636l0 2.7900085l0 2.790039l-1.3936768 2.091858l-1.3963623 2.0944824l-2.091858 0.69818115l-1.3963013 0.69815063l-5.5827026 0l-4.881897 -1.3963318l-4.8845215 -2.0944824l-3.4881592 -2.091858l-2.091858 -1.3963318l1.3936768 -2.790039l2.790039 -2.7900085l4.8845215 -3.4881897l4.1863403 -2.0944824l4.8845215 -1.3937073zm16.047241 -21.627304l-6.9763794 1.3937073l-6.9763794 2.7900238l-6.979004 2.7926483l-6.2781982 3.4881897l-6.2781982 4.1863556l-6.2782593 4.881897l-4.8844604 4.8845215l-4.1864014 4.1863403l-2.789978 3.4881897l-1.3963623 3.4881897l2.091858 2.7900085l4.1863403 2.7926636l4.1864014 2.790039l6.2808228 3.4881897l6.9763794 2.7900085l7.6745605 2.790039l6.9763794 2.0944824l6.2781982 1.3937073l8.372681 0.69815063l6.2781982 -0.69815063l5.5827026 -1.3937073l4.881897 -3.4881897l2.7926636 -2.0944824l2.091858 -2.091858l1.3963013 -3.4881897l1.3937378 -3.4881897l0.6981201 -3.4881897l0.69818115 -4.186371l-0.69818115 -9.769012l-1.3936768 -7.6745605l-1.3963013 -3.4881744l-1.3963623 -2.7900238l-2.091858 -2.790039l-2.0944824 -2.0944824l-2.091858 -2.091858l-3.4882202 -0.6981659l-4.8845215 -1.3937073z" fill-rule="evenodd"/></g></svg>